<svg xmlns="http://www.w3.org/2000/svg" viewBox="0 0 150 28.08"><defs><style>.cls-1{fill:#d6d6d6;}</style></defs><title>panchuko</title><g id="Layer_2" data-name="Layer 2"><g id="Layer_1-2" data-name="Layer 1"><path class="cls-1" d="M31.59,8.34a5.41,5.41,0,0,1,4.44,2,8.55,8.55,0,0,1,1.63,5.51A8.63,8.63,0,0,1,36,21.42a5.36,5.36,0,0,1-4.41,2,5.63,5.63,0,0,1-2.74-.65A4.15,4.15,0,0,1,27.12,21h-.23v7.08H24V8.59h2.78V11H27a4.77,4.77,0,0,1,1.88-1.95A5.32,5.32,0,0,1,31.59,8.34Zm-.82,12.53a3.46,3.46,0,0,0,2.88-1.33,5.72,5.72,0,0,0,1.05-3.65,5.71,5.71,0,0,0-1.05-3.64,3.79,3.79,0,0,0-5.75,0,5.69,5.69,0,0,0-1.06,3.64,5.65,5.65,0,0,0,1.06,3.62A3.46,3.46,0,0,0,30.77,20.87Z"/><path class="cls-1" d="M45.17,23.46a5.12,5.12,0,0,1-3.51-1.2,4.05,4.05,0,0,1-1.36-3.18A3.71,3.71,0,0,1,41.71,16a7.06,7.06,0,0,1,4-1.29l4-.23V13.22a2.16,2.16,0,0,0-.76-1.79,3.48,3.48,0,0,0-2.24-.63,4.14,4.14,0,0,0-2,.43,2,2,0,0,0-1,1.2h-2.8a4,4,0,0,1,1.85-3A7.11,7.11,0,0,1,46.84,8.3a6.3,6.3,0,0,1,4.24,1.3,4.54,4.54,0,0,1,1.5,3.62v10H49.8V21.16h-.23a4.49,4.49,0,0,1-1.81,1.7A5.52,5.52,0,0,1,45.17,23.46ZM45.91,21a4,4,0,0,0,2.71-.92,2.87,2.87,0,0,0,1.08-2.28V16.61l-3.57.22a4.29,4.29,0,0,0-2.22.62,1.76,1.76,0,0,0-.71,1.49A1.8,1.8,0,0,0,44,20.47,3.23,3.23,0,0,0,45.91,21Z"/><path class="cls-1" d="M56.69,23.22V8.59h2.78v2.32h.21A4.32,4.32,0,0,1,64.05,8.3,4.83,4.83,0,0,1,67.8,9.72a5.66,5.66,0,0,1,1.31,4v9.48H66.22V14.47q0-3.53-3.15-3.52a3.33,3.33,0,0,0-2.55,1,3.79,3.79,0,0,0-1,2.71v8.56Z"/><path class="cls-1" d="M85.56,13.37H82.75a3.17,3.17,0,0,0-1.16-1.8,3.65,3.65,0,0,0-2.29-.69,3.45,3.45,0,0,0-2.86,1.32,5.78,5.78,0,0,0-1,3.65,6,6,0,0,0,1,3.72,3.42,3.42,0,0,0,2.86,1.35,3.9,3.9,0,0,0,2.27-.62,2.91,2.91,0,0,0,1.18-1.79h2.81a5.36,5.36,0,0,1-1.94,3.62,6.55,6.55,0,0,1-4.31,1.37,6.42,6.42,0,0,1-5-2,8.07,8.07,0,0,1-1.84-5.61,7.92,7.92,0,0,1,1.83-5.53,7.3,7.3,0,0,1,9.34-.62A5.59,5.59,0,0,1,85.56,13.37Z"/><path class="cls-1" d="M89,23.22V2.88h2.86v8.06h.23A4.05,4.05,0,0,1,93.76,9a5.36,5.36,0,0,1,2.77-.68,4.81,4.81,0,0,1,3.7,1.43,5.66,5.66,0,0,1,1.34,4v9.45H98.68V14.48a3.83,3.83,0,0,0-.79-2.63A3,3,0,0,0,95.55,11a3.58,3.58,0,0,0-2.71,1,3.71,3.71,0,0,0-1,2.7v8.55Z"/><path class="cls-1" d="M118,8.59V23.22h-2.78V20.89H115c-.74,1.74-2.22,2.61-4.42,2.61a4.85,4.85,0,0,1-3.73-1.41,5.7,5.7,0,0,1-1.31-4V8.59h2.89v8.74a3.93,3.93,0,0,0,.75,2.64,2.92,2.92,0,0,0,2.33.85,3.54,3.54,0,0,0,2.67-1,3.72,3.72,0,0,0,.94-2.71V8.59Z"/><path class="cls-1" d="M125.4,14.69l5.81-6.1h3.41l-6,6.27L135,23.22h-3.55l-5-6.45L125.17,18v5.24h-2.88V2.88h2.88V14.69Z"/><path class="cls-1" d="M143.11,23.5a6.52,6.52,0,0,1-5.07-2,8,8,0,0,1-1.84-5.58,8,8,0,0,1,1.85-5.56,7.3,7.3,0,0,1,10.1,0A8,8,0,0,1,150,15.89a8,8,0,0,1-1.84,5.58A6.49,6.49,0,0,1,143.11,23.5Zm0-2.57A3.45,3.45,0,0,0,146,19.61a5.9,5.9,0,0,0,1-3.72,5.9,5.9,0,0,0-1-3.7,3.83,3.83,0,0,0-5.79,0,5.9,5.9,0,0,0-1,3.7,6,6,0,0,0,1,3.73A3.46,3.46,0,0,0,143.11,20.93Z"/><path class="cls-1" d="M17.19,4.72c-1.49-1.48-3-2.95-4.44-4.44a1,1,0,0,0-.5-.28H1.79A1.77,1.77,0,0,0,.67.45,2.11,2.11,0,0,0,0,2.1V21.28a2,2,0,0,0,2,1.94c4.53,0,9.07,0,13.61,0A1.71,1.71,0,0,0,16.5,23a2,2,0,0,0,1-1.87V5.57A1.16,1.16,0,0,0,17.19,4.72Zm-1.62.11H13.71a1,1,0,0,1-1.08-1.07c0-.69,0-1.37,0-2l3.11,3.12S15.63,4.83,15.57,4.83Z"/></g></g></svg>