<svg xmlns="http://www.w3.org/2000/svg" viewBox="0 0 130 45"><defs><style>.cls-1{fill:#d6d6d6;}.cls-2{fill:#606060;}</style></defs><title>receive</title><g id="Layer_2" data-name="Layer 2"><g id="Layer_1-2" data-name="Layer 1"><rect class="cls-1" width="130" height="45" rx="10" ry="10"/><path class="cls-2" d="M29.21,24.66V30.3H26.92V15.51h5.85a5.06,5.06,0,0,1,3.57,1.23,4.31,4.31,0,0,1,1.33,3.32,4.59,4.59,0,0,1-.76,2.63,4,4,0,0,1-2.11,1.59l3.33,6H35.47l-3-5.64Zm0-7.13v5.18h3.31A2.94,2.94,0,0,0,34.58,22a2.48,2.48,0,0,0,.74-1.92,2.43,2.43,0,0,0-.77-1.9,3.07,3.07,0,0,0-2.1-.68Z"/><path class="cls-2" d="M47.68,27.29H49.8a3.93,3.93,0,0,1-1.65,2.37,5.6,5.6,0,0,1-3.19.86A4.79,4.79,0,0,1,41.19,29a6.07,6.07,0,0,1-1.38-4.21A6.19,6.19,0,0,1,41.2,20.5,4.76,4.76,0,0,1,45,18.92a4.63,4.63,0,0,1,3.66,1.5,6,6,0,0,1,1.33,4.13v.77H42.05v.12a3.52,3.52,0,0,0,.85,2.34,2.79,2.79,0,0,0,2.13.86A2.62,2.62,0,0,0,47.68,27.29Zm-.77-5.71a2.6,2.6,0,0,0-2-.78,2.72,2.72,0,0,0-2,.79,3.17,3.17,0,0,0-.88,2.1h5.64A3.13,3.13,0,0,0,46.91,21.58Z"/><path class="cls-2" d="M62,22.79H59.89A2.37,2.37,0,0,0,59,21.41a2.8,2.8,0,0,0-1.75-.52,2.63,2.63,0,0,0-2.18,1,4.39,4.39,0,0,0-.79,2.79,4.54,4.54,0,0,0,.79,2.84,2.6,2.6,0,0,0,2.18,1A3,3,0,0,0,59,28.08a2.23,2.23,0,0,0,.89-1.37H62a4.16,4.16,0,0,1-1.48,2.77,5,5,0,0,1-3.29,1A4.89,4.89,0,0,1,53.43,29,6.16,6.16,0,0,1,52,24.68a6,6,0,0,1,1.39-4.22A5.59,5.59,0,0,1,60.56,20,4.27,4.27,0,0,1,62,22.79Z"/><path class="cls-2" d="M71.87,27.29H74a3.93,3.93,0,0,1-1.65,2.37,5.62,5.62,0,0,1-3.19.86A4.81,4.81,0,0,1,65.37,29,6.11,6.11,0,0,1,64,24.76a6.19,6.19,0,0,1,1.39-4.26,4.76,4.76,0,0,1,3.75-1.58,4.65,4.65,0,0,1,3.66,1.5,6,6,0,0,1,1.33,4.13v.77H66.24v.12a3.47,3.47,0,0,0,.85,2.34,2.78,2.78,0,0,0,2.12.86A2.63,2.63,0,0,0,71.87,27.29Zm-.77-5.71a2.6,2.6,0,0,0-2-.78,2.72,2.72,0,0,0-2,.79,3.17,3.17,0,0,0-.88,2.1h5.64A3.13,3.13,0,0,0,71.1,21.58Z"/><path class="cls-2" d="M78.93,16.79a1.53,1.53,0,0,1-2,0,1.25,1.25,0,0,1-.41-1,1.28,1.28,0,0,1,.41-1,1.53,1.53,0,0,1,2,0,1.28,1.28,0,0,1,.4,1A1.25,1.25,0,0,1,78.93,16.79ZM76.81,30.3V19.14H79V30.3Z"/><path class="cls-2" d="M91.7,19.14l-4,11.16H85.31l-4-11.16h2.36l2.78,8.8h.18l2.76-8.8Z"/><path class="cls-2" d="M100.83,27.29H103a4,4,0,0,1-1.66,2.37,5.59,5.59,0,0,1-3.18.86A4.81,4.81,0,0,1,94.33,29,6.07,6.07,0,0,1,93,24.76a6.2,6.2,0,0,1,1.4-4.26,4.76,4.76,0,0,1,3.75-1.58,4.61,4.61,0,0,1,3.65,1.5,6,6,0,0,1,1.33,4.13v.77H95.2v.12a3.47,3.47,0,0,0,.85,2.34,2.76,2.76,0,0,0,2.12.86A2.64,2.64,0,0,0,100.83,27.29Zm-.78-5.71a2.58,2.58,0,0,0-2-.78,2.72,2.72,0,0,0-2,.79,3.12,3.12,0,0,0-.88,2.1h5.64A3.08,3.08,0,0,0,100.05,21.58Z"/></g></g></svg>