<svg xmlns="http://www.w3.org/2000/svg" viewBox="0 0 130 45"><defs><style>.cls-1{fill:#d6d6d6;}.cls-2{fill:#606060;}</style></defs><title>send </title><g id="Layer_2" data-name="Layer 2"><g id="Layer_1-2" data-name="Layer 1"><rect class="cls-1" width="130" height="45" rx="10" ry="10"/><path class="cls-2" d="M40.61,26.1h2.27A2.33,2.33,0,0,0,44,27.78a4.47,4.47,0,0,0,2.45.62,3.85,3.85,0,0,0,2.29-.64,1.92,1.92,0,0,0,.91-1.62A1.66,1.66,0,0,0,49,24.76a5.54,5.54,0,0,0-2.15-.89l-1.91-.46A5.88,5.88,0,0,1,42,21.94,3.64,3.64,0,0,1,41,19.32a3.91,3.91,0,0,1,1.48-3.19,6,6,0,0,1,3.9-1.2,5.76,5.76,0,0,1,3.74,1.19,4,4,0,0,1,1.59,3.05H49.49a2.41,2.41,0,0,0-1-1.62A3.64,3.64,0,0,0,46.36,17a3.7,3.7,0,0,0-2.2.6,1.91,1.91,0,0,0-.83,1.6A1.53,1.53,0,0,0,44,20.44a5.46,5.46,0,0,0,2.08.83l1.63.4A6.92,6.92,0,0,1,51,23.19a3.52,3.52,0,0,1,1,2.65,4.11,4.11,0,0,1-1.54,3.36,6.43,6.43,0,0,1-4.16,1.24,6.36,6.36,0,0,1-4-1.18A4.11,4.11,0,0,1,40.61,26.1Z"/><path class="cls-2" d="M62,27.07h2.12a4,4,0,0,1-1.66,2.37,5.59,5.59,0,0,1-3.18.86,4.81,4.81,0,0,1-3.78-1.55,6.07,6.07,0,0,1-1.38-4.21,6.2,6.2,0,0,1,1.4-4.26,4.76,4.76,0,0,1,3.75-1.58A4.61,4.61,0,0,1,63,20.2a6,6,0,0,1,1.33,4.13v.77H56.41v.12a3.47,3.47,0,0,0,.85,2.34,2.76,2.76,0,0,0,2.12.86A2.64,2.64,0,0,0,62,27.07Zm-.78-5.71a2.58,2.58,0,0,0-2-.78,2.72,2.72,0,0,0-2,.79,3.12,3.12,0,0,0-.88,2.1h5.64A3.08,3.08,0,0,0,61.26,21.36Z"/><path class="cls-2" d="M66.94,30.08V18.92h2.12v1.77h.17a3.29,3.29,0,0,1,3.33-2,3.69,3.69,0,0,1,2.86,1.08,4.33,4.33,0,0,1,1,3.07v7.23h-2.2V23.41c0-1.79-.8-2.69-2.41-2.69a2.55,2.55,0,0,0-1.94.77,2.82,2.82,0,0,0-.73,2.06v6.53Z"/><path class="cls-2" d="M83.6,30.27a4.1,4.1,0,0,1-3.38-1.56A6.53,6.53,0,0,1,79,24.49a6.49,6.49,0,0,1,1.25-4.2,4.13,4.13,0,0,1,3.38-1.56,4,4,0,0,1,2.06.52A3.29,3.29,0,0,1,87,20.69h.16V14.56h2.2V30.08H87.28V28.32h-.17a3.64,3.64,0,0,1-1.43,1.43A4.25,4.25,0,0,1,83.6,30.27Zm.63-9.56a2.64,2.64,0,0,0-2.19,1,4.37,4.37,0,0,0-.8,2.77,4.39,4.39,0,0,0,.8,2.79,2.88,2.88,0,0,0,4.39,0,4.37,4.37,0,0,0,.8-2.77,4.32,4.32,0,0,0-.81-2.76A2.63,2.63,0,0,0,84.23,20.71Z"/></g></g></svg>