<svg xmlns="http://www.w3.org/2000/svg" viewBox="0 0 22.5 29.79"><defs><style>.cls-1{fill:#d6d6d6;}</style></defs><title>file name logo</title><g id="Layer_2" data-name="Layer 2"><g id="Layer_1-2" data-name="Layer 1"><path class="cls-1" d="M20,6.2H17.6a1.27,1.27,0,0,1-1.4-1.38V2.2l4,4S20.06,6.2,20,6.2Zm2.07-.14L16.36.37A1.16,1.16,0,0,0,15.72,0H2.3A2.2,2.2,0,0,0,.86.58,2.75,2.75,0,0,0,0,2.7V27.31a2.52,2.52,0,0,0,2.52,2.48H20a2.28,2.28,0,0,0,1.2-.27,2.62,2.62,0,0,0,1.31-2.4c0-6.66,0-13.31,0-20A1.43,1.43,0,0,0,22.05,6.06Z"/></g></g></svg>