<svg xmlns="http://www.w3.org/2000/svg" viewBox="0 0 20 20"><defs><style>.cls-1,.cls-2{fill:#d6d6d6;}.cls-2{opacity:0;}</style></defs><title>iconn</title><g id="Layer_2" data-name="Layer 2"><g id="Layer_1-2" data-name="Layer 1"><path class="cls-1" d="M15.82,4.2H14.23a.84.84,0,0,1-.93-.92V1.54L16,4.21S15.87,4.2,15.82,4.2Zm1.38-.09L13.41.31A.8.8,0,0,0,13,.07H4a1.46,1.46,0,0,0-1,.39A1.82,1.82,0,0,0,2.5,1.87v16.4a1.69,1.69,0,0,0,1.68,1.66H15.82a1.49,1.49,0,0,0,.8-.18,1.75,1.75,0,0,0,.88-1.6V4.83A.93.93,0,0,0,17.2,4.11Z"/><rect class="cls-2" width="20" height="20"/></g></g></svg>