<svg xmlns="http://www.w3.org/2000/svg" viewBox="0 0 15 19.86"><defs><style>.cls-1{fill:#d6d6d6;}</style></defs><title>iconwindow</title><g id="Layer_2" data-name="Layer 2"><g id="Layer_1-2" data-name="Layer 1"><path class="cls-1" d="M13.32,4.14H11.73a.86.86,0,0,1-.93-.93V1.47l2.66,2.67S13.37,4.14,13.32,4.14ZM14.7,4,10.91.24A.8.8,0,0,0,10.48,0h-9a1.46,1.46,0,0,0-1,.39A1.82,1.82,0,0,0,0,1.8V18.21a1.68,1.68,0,0,0,1.68,1.65H13.32a1.5,1.5,0,0,0,.8-.19,1.75,1.75,0,0,0,.88-1.6V4.76A.93.93,0,0,0,14.7,4Z"/></g></g></svg>