<svg xmlns="http://www.w3.org/2000/svg" viewBox="0 0 375 45"><defs><style>.cls-1{fill:#ddd;}.cls-2{fill:#606060;}</style></defs><title>next</title><g id="Layer_2" data-name="Layer 2"><g id="Layer_1-2" data-name="Layer 1"><rect class="cls-1" width="375" height="45" rx="9.75" ry="9.75"/><path class="cls-2" d="M167.19,29V17.79h2.12v1.78h.17a3.29,3.29,0,0,1,3.33-2,3.69,3.69,0,0,1,2.86,1.08,4.32,4.32,0,0,1,1,3.07V29h-2.2V22.29c0-1.79-.8-2.69-2.41-2.69a2.54,2.54,0,0,0-1.94.76,2.86,2.86,0,0,0-.73,2.07V29Z"/><path class="cls-2" d="M187.09,26h2.12a3.88,3.88,0,0,1-1.65,2.36,5.55,5.55,0,0,1-3.19.87,4.81,4.81,0,0,1-3.78-1.55,6.14,6.14,0,0,1-1.37-4.22,6.18,6.18,0,0,1,1.39-4.25,4.76,4.76,0,0,1,3.75-1.58,4.63,4.63,0,0,1,3.66,1.5,6,6,0,0,1,1.33,4.13V24h-7.89v.12a3.56,3.56,0,0,0,.85,2.34,2.79,2.79,0,0,0,2.13.86A2.62,2.62,0,0,0,187.09,26Zm-.77-5.71a2.6,2.6,0,0,0-2-.78,2.72,2.72,0,0,0-2,.79,3.17,3.17,0,0,0-.88,2.1h5.64A3.11,3.11,0,0,0,186.32,20.24Z"/><path class="cls-2" d="M195.74,25h-.17l-2.44,4h-2.42l3.7-5.56-3.73-5.61h2.57l2.4,3.94h.18l2.38-3.94h2.45L197,23.31,200.7,29h-2.53Z"/><path class="cls-2" d="M203.79,15H206v2.83h2.42V19.7H206v5.74a1.83,1.83,0,0,0,.38,1.28,1.57,1.57,0,0,0,1.2.41,7.46,7.46,0,0,0,.84-.06v1.84a7.75,7.75,0,0,1-1.2.11,4,4,0,0,1-2.63-.69,3,3,0,0,1-.8-2.32V19.7H202V17.85h1.77Z"/></g></g></svg>