<svg xmlns="http://www.w3.org/2000/svg" viewBox="0 0 117.36 25.04"><defs><style>.cls-1{font-size:21.33px;font-family:SFProText-Medium, SF Pro Text;}.cls-1,.cls-3{fill:#d6d6d6;}.cls-2{letter-spacing:-0.03em;}</style></defs><title>Asset 3</title><g id="Layer_2" data-name="Layer 2"><g id="Layer_1-2" data-name="Layer 1"><text class="cls-1" transform="translate(16.98 19.08)">panchu<tspan class="cls-2" x="76.1" y="0">k</tspan><tspan x="87.56" y="0">o</tspan></text><path class="cls-3" d="M13.32,4.74,9.88,1.3a.7.7,0,0,0-.38-.22H1.39a1.35,1.35,0,0,0-.87.35A1.65,1.65,0,0,0,0,2.71V17.58a1.53,1.53,0,0,0,1.52,1.5H12.07a1.45,1.45,0,0,0,.73-.17,1.59,1.59,0,0,0,.79-1.45V5.4A.86.86,0,0,0,13.32,4.74Zm-1.25.09H10.63A.76.76,0,0,1,9.79,4V2.41L12.2,4.83S12.12,4.83,12.07,4.83Z"/></g></g></svg>