<svg xmlns="http://www.w3.org/2000/svg" viewBox="0 0 111.47 12.95"><defs><style>.cls-1{fill:#ddd;}</style></defs><title>filesreceived</title><g id="Layer_2" data-name="Layer 2"><g id="Layer_1-2" data-name="Layer 1"><path class="cls-1" d="M2,12.77H0V.09H7.92V1.78H2v4H7.42V7.46H2Z"/><path class="cls-1" d="M11.2,1.85a1.06,1.06,0,0,1-.78.32,1,1,0,0,1-.78-.32,1,1,0,0,1-.32-.76A1,1,0,0,1,9.64.32a1.11,1.11,0,0,1,1.56,0,1,1,0,0,1,.32.77A1,1,0,0,1,11.2,1.85ZM9.47,12.77V3.52h1.89v9.25Z"/><path class="cls-1" d="M13.38,12.77V.09h1.9V12.77Z"/><path class="cls-1" d="M23.35,10.05h1.8a3.09,3.09,0,0,1-1.3,2.09,4.37,4.37,0,0,1-2.68.81A4.1,4.1,0,0,1,18,11.67a5,5,0,0,1-1.17-3.48A5.13,5.13,0,0,1,18,4.68a3.93,3.93,0,0,1,3.11-1.32,3.86,3.86,0,0,1,3,1.25A4.84,4.84,0,0,1,25.26,8v.65H18.73v.12a2.76,2.76,0,0,0,.68,1.94,2.33,2.33,0,0,0,1.81.73A2.44,2.44,0,0,0,22.59,11,1.81,1.81,0,0,0,23.35,10.05Zm-.65-4.5a2.1,2.1,0,0,0-1.61-.66,2.16,2.16,0,0,0-1.63.67,2.7,2.7,0,0,0-.72,1.73h4.62A2.56,2.56,0,0,0,22.7,5.55Z"/><path class="cls-1" d="M26.56,6.14a2.43,2.43,0,0,1,1-2,4.2,4.2,0,0,1,2.62-.77,4,4,0,0,1,2.53.78,2.55,2.55,0,0,1,1,2H32a1.36,1.36,0,0,0-.56-1,2.06,2.06,0,0,0-1.27-.36,2,2,0,0,0-1.24.34,1,1,0,0,0-.47.89c0,.56.47,1,1.41,1.19l1.56.36a4.35,4.35,0,0,1,2,.91A2.16,2.16,0,0,1,34,10.1a2.44,2.44,0,0,1-1.07,2.06,4.57,4.57,0,0,1-2.77.79,4.26,4.26,0,0,1-2.65-.78,2.79,2.79,0,0,1-1.14-2.05H28.2a1.53,1.53,0,0,0,.63,1,2.34,2.34,0,0,0,1.37.36,2.41,2.41,0,0,0,1.35-.33,1,1,0,0,0,.49-.9.91.91,0,0,0-.29-.71,2.73,2.73,0,0,0-1-.45l-1.66-.4C27.4,8.31,26.56,7.45,26.56,6.14Z"/><path class="cls-1" d="M39.08,12.77V3.52h1.81V5.1h0a2.39,2.39,0,0,1,.82-1.27,2.24,2.24,0,0,1,1.4-.45,3.28,3.28,0,0,1,.65.07V5.21a2.46,2.46,0,0,0-.85-.1,1.86,1.86,0,0,0-1.44.57A2.17,2.17,0,0,0,41,7.23v5.54Z"/><path class="cls-1" d="M50.71,10.05h1.8a3.09,3.09,0,0,1-1.3,2.09,4.37,4.37,0,0,1-2.68.81,4.1,4.1,0,0,1-3.19-1.28,5,5,0,0,1-1.17-3.48,5.13,5.13,0,0,1,1.17-3.51,3.93,3.93,0,0,1,3.11-1.32,3.88,3.88,0,0,1,3,1.25A4.84,4.84,0,0,1,52.62,8v.65H46.09v.12a2.76,2.76,0,0,0,.68,1.94,2.33,2.33,0,0,0,1.81.73A2.44,2.44,0,0,0,50,11,1.81,1.81,0,0,0,50.71,10.05Zm-.65-4.5a2.1,2.1,0,0,0-1.61-.66,2.16,2.16,0,0,0-1.63.67,2.7,2.7,0,0,0-.72,1.73h4.62A2.56,2.56,0,0,0,50.06,5.55Z"/><path class="cls-1" d="M62,6.71H60.21A2.08,2.08,0,0,0,58,4.94a2.11,2.11,0,0,0-1.77.87,3.74,3.74,0,0,0-.66,2.34,3.75,3.75,0,0,0,.66,2.35,2.15,2.15,0,0,0,1.79.86,2.21,2.21,0,0,0,1.43-.46,2.1,2.1,0,0,0,.72-1.26H62A3.45,3.45,0,0,1,60.8,12,4.21,4.21,0,0,1,58,13a4.11,4.11,0,0,1-3.18-1.29,5,5,0,0,1-1.19-3.51,5,5,0,0,1,1.19-3.5A4.1,4.1,0,0,1,58,3.36a4,4,0,0,1,2.79,1A3.49,3.49,0,0,1,62,6.71Z"/><path class="cls-1" d="M69.51,10.05h1.8A3.09,3.09,0,0,1,70,12.14a4.37,4.37,0,0,1-2.68.81,4.1,4.1,0,0,1-3.19-1.28A5,5,0,0,1,63,8.19a5.13,5.13,0,0,1,1.17-3.51,3.93,3.93,0,0,1,3.11-1.32,3.86,3.86,0,0,1,3,1.25A4.84,4.84,0,0,1,71.42,8v.65H64.89v.12a2.76,2.76,0,0,0,.68,1.94,2.33,2.33,0,0,0,1.81.73A2.44,2.44,0,0,0,68.75,11,1.81,1.81,0,0,0,69.51,10.05Zm-.65-4.5a2.1,2.1,0,0,0-1.61-.66,2.16,2.16,0,0,0-1.63.67,2.7,2.7,0,0,0-.72,1.73h4.62A2.56,2.56,0,0,0,68.86,5.55Z"/><path class="cls-1" d="M74.68,1.85a1.06,1.06,0,0,1-.78.32,1,1,0,0,1-.78-.32,1,1,0,0,1-.32-.76,1.06,1.06,0,0,1,.32-.77A1.06,1.06,0,0,1,73.9,0a1.1,1.1,0,0,1,.79.32,1.06,1.06,0,0,1,.32.77A1,1,0,0,1,74.68,1.85ZM73,12.77V3.52h1.9v9.25Z"/><path class="cls-1" d="M84.68,3.52l-3.31,9.25h-2L76,3.52h2l2.32,7.4h0l2.32-7.4Z"/><path class="cls-1" d="M91.63,10.05h1.81a3.16,3.16,0,0,1-1.3,2.09,4.42,4.42,0,0,1-2.68.81,4.12,4.12,0,0,1-3.2-1.28A5,5,0,0,1,85.1,8.19a5.13,5.13,0,0,1,1.16-3.51,4,4,0,0,1,3.12-1.32,3.87,3.87,0,0,1,3,1.25A4.84,4.84,0,0,1,93.54,8v.65H87v.12a2.76,2.76,0,0,0,.68,1.94,2.33,2.33,0,0,0,1.81.73A2.44,2.44,0,0,0,90.87,11,1.77,1.77,0,0,0,91.63,10.05ZM91,5.55a2.1,2.1,0,0,0-1.6-.66,2.17,2.17,0,0,0-1.64.67A2.7,2.7,0,0,0,87,7.29h4.62A2.56,2.56,0,0,0,91,5.55Z"/><path class="cls-1" d="M98.48,12.93a3.45,3.45,0,0,1-2.82-1.3A5.33,5.33,0,0,1,94.6,8.15a5.32,5.32,0,0,1,1.06-3.48,3.44,3.44,0,0,1,2.8-1.29,3.37,3.37,0,0,1,1.74.45,2.93,2.93,0,0,1,1.16,1.23h0v-5h1.91V12.77h-1.85V11.2h0a3.1,3.1,0,0,1-1.19,1.27A3.42,3.42,0,0,1,98.48,12.93ZM99,5a2.13,2.13,0,0,0-1.78.86,3.7,3.7,0,0,0-.66,2.32,3.7,3.7,0,0,0,.66,2.32,2.26,2.26,0,0,0,3.55,0,3.68,3.68,0,0,0,.67-2.3,3.73,3.73,0,0,0-.67-2.31A2.13,2.13,0,0,0,99,5Z"/><path class="cls-1" d="M111.14,6.13a1.12,1.12,0,0,1-.82.33,1.13,1.13,0,0,1-1.15-1.15,1.12,1.12,0,0,1,.33-.82,1.14,1.14,0,0,1,.82-.33,1.13,1.13,0,0,1,1.15,1.15A1.14,1.14,0,0,1,111.14,6.13Zm0,6.4a1.09,1.09,0,0,1-.82.34,1.16,1.16,0,0,1-.82-2,1.15,1.15,0,0,1,.82-.34,1.13,1.13,0,0,1,.82.34,1.17,1.17,0,0,1,0,1.63Z"/></g></g></svg>