<svg xmlns="http://www.w3.org/2000/svg" viewBox="0 0 100 133.3"><defs><style>.cls-1{fill:#ddd;}</style></defs><title>filesvg</title><g id="Layer_2" data-name="Layer 2"><g id="Layer_1-2" data-name="Layer 1"><path class="cls-1" d="M9.9,0H70a15.8,15.8,0,0,1,2,1.44Q85.29,14.67,98.54,27.92A4.76,4.76,0,0,1,100,31.51q0,45,0,89.94c0,7.11-4.73,11.85-11.82,11.85q-38.19,0-76.4,0a13.09,13.09,0,0,1-3.47-.42A11,11,0,0,1,0,121.77c0-7.28,0-14.57,0-21.86q0-44,0-88a11.87,11.87,0,0,1,2.74-8A12.19,12.19,0,0,1,9.9,0ZM72.19,9.8c0,4,0,7.93,0,11.86s2.29,6.1,6.2,6.12c3.6,0,7.2,0,10.8,0,.32,0,.64-.06.89-.08C84.15,21.76,78.25,15.85,72.19,9.8Z"/></g></g></svg>