<svg xmlns="http://www.w3.org/2000/svg" viewBox="0 0 100 45"><defs><style>.cls-1{fill:#ddd;}.cls-2{fill:#606060;}</style></defs><title>nextt</title><g id="Layer_2" data-name="Layer 2"><g id="Layer_1-2" data-name="Layer 1"><rect class="cls-1" width="100" height="45" rx="9.75" ry="9.75"/><path class="cls-2" d="M29.38,29.37V18.2h2.13V20h.16A3.3,3.3,0,0,1,35,18a3.72,3.72,0,0,1,2.87,1.08,4.34,4.34,0,0,1,1,3.08v7.23H36.66V22.69c0-1.79-.8-2.69-2.4-2.69a2.55,2.55,0,0,0-1.95.77,2.89,2.89,0,0,0-.72,2.06v6.54Z"/><path class="cls-2" d="M49.29,26.35h2.12a3.92,3.92,0,0,1-1.66,2.37,5.59,5.59,0,0,1-3.18.86A4.81,4.81,0,0,1,42.79,28a6.11,6.11,0,0,1-1.38-4.22,6.21,6.21,0,0,1,1.4-4.26A4.76,4.76,0,0,1,46.56,18a4.61,4.61,0,0,1,3.65,1.5,6,6,0,0,1,1.33,4.13v.77H43.66v.12a3.47,3.47,0,0,0,.85,2.34,2.73,2.73,0,0,0,2.12.86A2.64,2.64,0,0,0,49.29,26.35Zm-.78-5.71a2.58,2.58,0,0,0-2-.78,2.69,2.69,0,0,0-2,.79,3.16,3.16,0,0,0-.88,2.1H49.3A3.1,3.1,0,0,0,48.51,20.64Z"/><path class="cls-2" d="M57.93,25.41h-.16l-2.44,4H52.91l3.7-5.56L52.88,18.2h2.57l2.4,3.94H58L60.4,18.2h2.45l-3.68,5.51,3.73,5.66H60.36Z"/><path class="cls-2" d="M66,15.42H68.2v2.83h2.42v1.86H68.2v5.74a1.82,1.82,0,0,0,.37,1.27,1.6,1.6,0,0,0,1.2.41c.22,0,.5,0,.85-.05v1.83a6.76,6.76,0,0,1-1.2.12,4,4,0,0,1-2.63-.7,3,3,0,0,1-.8-2.32v-6.3H64.22V18.25H66Z"/></g></g></svg>