<svg xmlns="http://www.w3.org/2000/svg" viewBox="0 0 602.78 19.13"><defs><style>.cls-1{fill:#ddd;}</style></defs><title>next_1</title><g id="Layer_2" data-name="Layer 2"><g id="Layer_1-2" data-name="Layer 1"><path class="cls-1" d="M14.26,15.07h-2V4.89h-.14L8,14.66H6.3L2.17,4.89H2V15.07H0V1H2.56L7,11.68h.17L11.7,1h2.56Z"/><path class="cls-1" d="M20.49,15.24a3.77,3.77,0,0,1-2.56-.87,2.92,2.92,0,0,1-1-2.31,2.71,2.71,0,0,1,1-2.24,5.1,5.1,0,0,1,2.93-.93l2.88-.17V7.8a1.59,1.59,0,0,0-.56-1.3A2.52,2.52,0,0,0,21.6,6a3.19,3.19,0,0,0-1.46.31,1.49,1.49,0,0,0-.76.88h-2A3,3,0,0,1,18.7,5a5.2,5.2,0,0,1,3-.81,4.56,4.56,0,0,1,3.08.94A3.29,3.29,0,0,1,25.87,7.8v7.27h-2v-1.5h-.17a3.26,3.26,0,0,1-1.31,1.24A4,4,0,0,1,20.49,15.24ZM21,13.48a2.9,2.9,0,0,0,2-.67,2.06,2.06,0,0,0,.79-1.66v-.89l-2.6.17a3.06,3.06,0,0,0-1.61.45A1.27,1.27,0,0,0,19.05,12a1.3,1.3,0,0,0,.55,1.11A2.33,2.33,0,0,0,21,13.48Z"/><path class="cls-1" d="M31.22,8.87l4.22-4.44h2.48L33.54,9l4.67,6.08H35.63L32,10.38l-.93.88v3.81H29V.28h2.09V8.87Z"/><path class="cls-1" d="M46.57,12.2h2A3.71,3.71,0,0,1,47,14.45a5.28,5.28,0,0,1-3,.82,4.56,4.56,0,0,1-3.59-1.47,5.79,5.79,0,0,1-1.32-4A5.94,5.94,0,0,1,40.4,5.73,4.54,4.54,0,0,1,44,4.23a4.44,4.44,0,0,1,3.49,1.42,5.75,5.75,0,0,1,1.26,3.94v.73H41.21v.12A3.31,3.31,0,0,0,42,12.67a2.65,2.65,0,0,0,2,.82A2.49,2.49,0,0,0,46.57,12.2Zm-.74-5.44A2.43,2.43,0,0,0,44,6a2.59,2.59,0,0,0-1.91.75,3,3,0,0,0-.84,2h5.37A2.89,2.89,0,0,0,45.83,6.76Z"/><path class="cls-1" d="M56.46,7.44a2.79,2.79,0,0,1,1.17-2.31,4.69,4.69,0,0,1,3-.9A4.88,4.88,0,0,1,63.5,5a3,3,0,0,1,1.26,2.2h-2a1.46,1.46,0,0,0-.7-.94,2.74,2.74,0,0,0-1.44-.34,2.69,2.69,0,0,0-1.48.38,1.16,1.16,0,0,0-.58,1,1,1,0,0,0,.41.8,3.51,3.51,0,0,0,1.27.5L62,9a4.82,4.82,0,0,1,2.25,1.05A2.45,2.45,0,0,1,65,11.93a2.89,2.89,0,0,1-1.24,2.42,5.19,5.19,0,0,1-3.16.92,5.3,5.3,0,0,1-3.06-.8,2.93,2.93,0,0,1-1.31-2.22h2.1a1.75,1.75,0,0,0,.79,1,2.89,2.89,0,0,0,1.53.35,2.93,2.93,0,0,0,1.61-.4,1.19,1.19,0,0,0,.62-1c0-.62-.52-1.05-1.56-1.3l-1.86-.43a4.73,4.73,0,0,1-2.24-1.07A2.56,2.56,0,0,1,56.46,7.44Z"/><path class="cls-1" d="M76.46,4.43V15.07h-2V13.38h-.16a3.15,3.15,0,0,1-3.22,1.89,3.54,3.54,0,0,1-2.71-1,4.16,4.16,0,0,1-1-2.91V4.43h2.1v6.36A2.86,2.86,0,0,0,70,12.71a2.17,2.17,0,0,0,1.7.62,2.57,2.57,0,0,0,1.94-.71,2.7,2.7,0,0,0,.69-2V4.43Z"/><path class="cls-1" d="M79.5,15.07V4.43h2V6.06h.16a2.22,2.22,0,0,1,1-1.29,3.37,3.37,0,0,1,1.84-.51,3.86,3.86,0,0,1,.94.09V6.42a3.83,3.83,0,0,0-1.17-.13,2.79,2.79,0,0,0-2,.69,2.33,2.33,0,0,0-.76,1.81v6.28Z"/><path class="cls-1" d="M94.21,12.2h2a3.72,3.72,0,0,1-1.58,2.25,5.27,5.27,0,0,1-3,.82A4.59,4.59,0,0,1,88,13.8a5.83,5.83,0,0,1-1.31-4A5.89,5.89,0,0,1,88,5.73a4.51,4.51,0,0,1,3.57-1.5,4.4,4.4,0,0,1,3.48,1.42,5.71,5.71,0,0,1,1.27,3.94v.73H88.85v.12a3.31,3.31,0,0,0,.81,2.23,2.65,2.65,0,0,0,2,.82A2.5,2.5,0,0,0,94.21,12.2Zm-.74-5.44A2.43,2.43,0,0,0,91.6,6a2.59,2.59,0,0,0-1.91.75,3,3,0,0,0-.84,2h5.37A3,3,0,0,0,93.47,6.76Z"/><path class="cls-1" d="M105.4,18.93a6.58,6.58,0,0,1-.87-.05V17.07a3.89,3.89,0,0,0,.68,0,1.93,1.93,0,0,0,1.21-.34,2.34,2.34,0,0,0,.72-1.14l.15-.52L103.45,4.43h2.28l2.67,8.45h.16l2.66-8.45h2.23l-4,11.08a6.14,6.14,0,0,1-1.56,2.67A3.79,3.79,0,0,1,105.4,18.93Z"/><path class="cls-1" d="M119.68,15.27A4.73,4.73,0,0,1,116,13.8a5.77,5.77,0,0,1-1.34-4.05,5.82,5.82,0,0,1,1.34-4,5.32,5.32,0,0,1,7.34,0,5.78,5.78,0,0,1,1.35,4.05,5.82,5.82,0,0,1-1.34,4.05A4.72,4.72,0,0,1,119.68,15.27Zm0-1.86a2.51,2.51,0,0,0,2.1-1,4.33,4.33,0,0,0,.75-2.7,4.26,4.26,0,0,0-.75-2.69,2.78,2.78,0,0,0-4.21,0,4.29,4.29,0,0,0-.74,2.7,4.29,4.29,0,0,0,.74,2.7A2.51,2.51,0,0,0,119.68,13.41Z"/><path class="cls-1" d="M136.17,4.43V15.07h-2V13.38H134a3.15,3.15,0,0,1-3.21,1.89,3.54,3.54,0,0,1-2.71-1,4.16,4.16,0,0,1-1-2.91V4.43h2.1v6.36a2.86,2.86,0,0,0,.54,1.92,2.16,2.16,0,0,0,1.7.62,2.58,2.58,0,0,0,1.94-.71,2.74,2.74,0,0,0,.68-2V4.43Z"/><path class="cls-1" d="M140.85,6.54h-1.49L140.25,1h2.24Z"/><path class="cls-1" d="M145.28,15.07V4.43h2V6.06h.16a2.22,2.22,0,0,1,1-1.29,3.37,3.37,0,0,1,1.84-.51,3.86,3.86,0,0,1,.94.09V6.42a3.75,3.75,0,0,0-1.17-.13,2.79,2.79,0,0,0-2,.69,2.36,2.36,0,0,0-.76,1.81v6.28Z"/><path class="cls-1" d="M160,12.2h2a3.68,3.68,0,0,1-1.58,2.25,5.27,5.27,0,0,1-3,.82,4.59,4.59,0,0,1-3.6-1.47,5.83,5.83,0,0,1-1.31-4,5.89,5.89,0,0,1,1.33-4.06,4.53,4.53,0,0,1,3.57-1.5,4.4,4.4,0,0,1,3.48,1.42,5.71,5.71,0,0,1,1.27,3.94v.73h-7.51v.12a3.31,3.31,0,0,0,.81,2.23,2.65,2.65,0,0,0,2,.82A2.5,2.5,0,0,0,160,12.2Zm-.74-5.44A2.43,2.43,0,0,0,157.38,6a2.59,2.59,0,0,0-1.91.75,3,3,0,0,0-.84,2H160A2.93,2.93,0,0,0,159.25,6.76Z"/><path class="cls-1" d="M170.88,15.07V6.25h-1.75V4.48h1.75V3.34q0-3.15,3.28-3.15a6.88,6.88,0,0,1,1.25.1V1.94a4.32,4.32,0,0,0-.81-.06,1.73,1.73,0,0,0-1.26.4A1.61,1.61,0,0,0,173,3.47v1h2.37V6.25H173v8.82Z"/><path class="cls-1" d="M177.79,15.07V.28h2.1V15.07Z"/><path class="cls-1" d="M184.09,18.93a6.58,6.58,0,0,1-.87-.05V17.07a4,4,0,0,0,.69,0,1.92,1.92,0,0,0,1.2-.34,2.34,2.34,0,0,0,.72-1.14l.16-.52L182.14,4.43h2.28l2.67,8.45h.17l2.65-8.45h2.23l-4,11.08a6,6,0,0,1-1.56,2.67A3.79,3.79,0,0,1,184.09,18.93Z"/><path class="cls-1" d="M196.34,2.2a1.32,1.32,0,0,1-1,.37,1.34,1.34,0,0,1-1-.37,1.2,1.2,0,0,1-.39-.91,1.22,1.22,0,0,1,.39-.92,1.34,1.34,0,0,1,1-.37,1.32,1.32,0,0,1,1,.37,1.22,1.22,0,0,1,.39.92A1.2,1.2,0,0,1,196.34,2.2Zm-2,12.87V4.43h2.09V15.07Z"/><path class="cls-1" d="M199.5,15.07V4.43h2V6.12h.16a3.13,3.13,0,0,1,3.17-1.89,3.54,3.54,0,0,1,2.73,1,4.14,4.14,0,0,1,1,2.93v6.89h-2.1V8.71c0-1.7-.77-2.56-2.3-2.56a2.45,2.45,0,0,0-1.85.73,2.73,2.73,0,0,0-.69,2v6.22Z"/><path class="cls-1" d="M216,19.13a5.74,5.74,0,0,1-3.21-.81,3,3,0,0,1-1.39-2.19h2.15a1.42,1.42,0,0,0,.78.93,3.62,3.62,0,0,0,1.7.34,3.14,3.14,0,0,0,2-.59,2,2,0,0,0,.74-1.64v-2h-.16a3.31,3.31,0,0,1-1.33,1.32,4.32,4.32,0,0,1-5.16-1A5.85,5.85,0,0,1,211,9.63a6,6,0,0,1,1.19-3.91,4,4,0,0,1,3.22-1.46,4.05,4.05,0,0,1,2,.5,3.3,3.3,0,0,1,1.35,1.37h.17V4.43h2V15.16a3.54,3.54,0,0,1-1.33,2.9A5.55,5.55,0,0,1,216,19.13Zm-2.11-7a2.49,2.49,0,0,0,2.08.94,2.61,2.61,0,0,0,2.11-.94,3.91,3.91,0,0,0,.77-2.54,3.93,3.93,0,0,0-.77-2.54,2.61,2.61,0,0,0-2.11-.94,2.49,2.49,0,0,0-2.08.94,3.92,3.92,0,0,0-.74,2.54A3.94,3.94,0,0,0,213.86,12.16Z"/><path class="cls-1" d="M230.15,15.07V6.25H228.4V4.48h1.75V3.34q0-3.15,3.28-3.15a7,7,0,0,1,1.25.1V1.94a4.32,4.32,0,0,0-.81-.06,1.73,1.73,0,0,0-1.26.4,1.61,1.61,0,0,0-.39,1.19v1h2.37V6.25h-2.34v8.82Z"/><path class="cls-1" d="M239,2.2a1.34,1.34,0,0,1-1,.37,1.32,1.32,0,0,1-1-.37,1.2,1.2,0,0,1-.39-.91,1.22,1.22,0,0,1,.39-.92,1.32,1.32,0,0,1,1-.37,1.34,1.34,0,0,1,1,.37,1.21,1.21,0,0,1,.38.92A1.19,1.19,0,0,1,239,2.2Zm-2,12.87V4.43h2.09V15.07Z"/><path class="cls-1" d="M242.28,15.07V.28h2.1V15.07Z"/><path class="cls-1" d="M254.49,12.2h2a3.71,3.71,0,0,1-1.57,2.25,5.28,5.28,0,0,1-3,.82,4.56,4.56,0,0,1-3.59-1.47,5.79,5.79,0,0,1-1.32-4,5.94,5.94,0,0,1,1.33-4.06,4.54,4.54,0,0,1,3.57-1.5,4.44,4.44,0,0,1,3.49,1.42,5.75,5.75,0,0,1,1.26,3.94v.73h-7.51v.12a3.31,3.31,0,0,0,.81,2.23,2.65,2.65,0,0,0,2,.82A2.49,2.49,0,0,0,254.49,12.2Zm-.74-5.44A2.43,2.43,0,0,0,251.88,6a2.59,2.59,0,0,0-1.91.75,3,3,0,0,0-.84,2h5.37A2.89,2.89,0,0,0,253.75,6.76Z"/><path class="cls-1" d="M258.92,7.44a2.78,2.78,0,0,1,1.16-2.31,4.69,4.69,0,0,1,3-.9A4.86,4.86,0,0,1,266,5a3,3,0,0,1,1.26,2.2h-2a1.51,1.51,0,0,0-.71-.94,2.74,2.74,0,0,0-1.44-.34,2.69,2.69,0,0,0-1.48.38,1.16,1.16,0,0,0-.58,1,1,1,0,0,0,.41.8,3.5,3.5,0,0,0,1.28.5l1.76.41a4.72,4.72,0,0,1,2.25,1.05,2.45,2.45,0,0,1,.72,1.85,2.89,2.89,0,0,1-1.24,2.42,5.19,5.19,0,0,1-3.16.92,5.32,5.32,0,0,1-3.06-.8,2.93,2.93,0,0,1-1.31-2.22h2.1a1.75,1.75,0,0,0,.79,1,2.89,2.89,0,0,0,1.53.35,2.93,2.93,0,0,0,1.61-.4,1.19,1.19,0,0,0,.62-1c0-.62-.52-1.05-1.56-1.3l-1.85-.43a4.73,4.73,0,0,1-2.25-1.07A2.6,2.6,0,0,1,258.92,7.44Z"/><path class="cls-1" d="M278.35,15.24a3.72,3.72,0,0,1-2.55-.87,2.9,2.9,0,0,1-1-2.31,2.71,2.71,0,0,1,1-2.24,5.1,5.1,0,0,1,2.93-.93l2.88-.17V7.8a1.56,1.56,0,0,0-.56-1.3A2.52,2.52,0,0,0,279.46,6a3.19,3.19,0,0,0-1.46.31,1.47,1.47,0,0,0-.75.88h-2A3,3,0,0,1,276.56,5a5.2,5.2,0,0,1,3-.81,4.54,4.54,0,0,1,3.08.94,3.29,3.29,0,0,1,1.09,2.63v7.27h-2v-1.5h-.17a3.19,3.19,0,0,1-1.31,1.24A4,4,0,0,1,278.35,15.24Zm.54-1.76a2.9,2.9,0,0,0,2-.67,2.06,2.06,0,0,0,.79-1.66v-.89l-2.6.17a3.06,3.06,0,0,0-1.61.45,1.27,1.27,0,0,0-.52,1.08,1.32,1.32,0,0,0,.55,1.11A2.35,2.35,0,0,0,278.89,13.48Z"/><path class="cls-1" d="M286.72,15.07V4.43h2V6.06h.16a2.22,2.22,0,0,1,1-1.29,3.35,3.35,0,0,1,1.84-.51,3.86,3.86,0,0,1,.94.09V6.42a3.87,3.87,0,0,0-1.18-.13,2.77,2.77,0,0,0-1.95.69,2.33,2.33,0,0,0-.76,1.81v6.28Z"/><path class="cls-1" d="M301.43,12.2h2a3.72,3.72,0,0,1-1.58,2.25,5.27,5.27,0,0,1-3,.82,4.58,4.58,0,0,1-3.6-1.47,5.78,5.78,0,0,1-1.31-4,5.94,5.94,0,0,1,1.32-4.06,4.55,4.55,0,0,1,3.58-1.5,4.4,4.4,0,0,1,3.48,1.42,5.75,5.75,0,0,1,1.26,3.94v.73h-7.51v.12a3.36,3.36,0,0,0,.82,2.23,2.64,2.64,0,0,0,2,.82A2.51,2.51,0,0,0,301.43,12.2Zm-.74-5.44A2.45,2.45,0,0,0,298.82,6a2.62,2.62,0,0,0-1.92.75,3,3,0,0,0-.84,2h5.38A3,3,0,0,0,300.69,6.76Z"/><path class="cls-1" d="M320.57,7.91h-2a2.29,2.29,0,0,0-.85-1.31A2.66,2.66,0,0,0,316,6.1a2.51,2.51,0,0,0-2.08,1,4.21,4.21,0,0,0-.76,2.66,4.37,4.37,0,0,0,.76,2.7,2.5,2.5,0,0,0,2.08,1,2.82,2.82,0,0,0,1.65-.45,2.14,2.14,0,0,0,.86-1.3h2a3.93,3.93,0,0,1-1.41,2.63,4.77,4.77,0,0,1-3.13,1,4.67,4.67,0,0,1-3.66-1.48A5.84,5.84,0,0,1,311,9.72a5.81,5.81,0,0,1,1.32-4,5.35,5.35,0,0,1,6.8-.45A4.13,4.13,0,0,1,320.57,7.91Z"/><path class="cls-1" d="M327.45,15.27a4.73,4.73,0,0,1-3.68-1.47,5.82,5.82,0,0,1-1.34-4.05,5.82,5.82,0,0,1,1.34-4,5.33,5.33,0,0,1,7.35,0,5.82,5.82,0,0,1,1.34,4.05,5.82,5.82,0,0,1-1.34,4.05A4.7,4.7,0,0,1,327.45,15.27Zm0-1.86a2.52,2.52,0,0,0,2.11-1,4.4,4.4,0,0,0,.74-2.7,4.33,4.33,0,0,0-.74-2.69,2.79,2.79,0,0,0-4.22,0,4.36,4.36,0,0,0-.74,2.7,4.36,4.36,0,0,0,.74,2.7A2.52,2.52,0,0,0,327.45,13.41Z"/><path class="cls-1" d="M340.5,4.26a3.9,3.9,0,0,1,3.22,1.48,6.22,6.22,0,0,1,1.19,4,6.26,6.26,0,0,1-1.18,4,3.9,3.9,0,0,1-3.21,1.48,4,4,0,0,1-2-.47,2.94,2.94,0,0,1-1.28-1.31h-.17V18.6H335V4.43h2V6.19h.16a3.47,3.47,0,0,1,1.37-1.42A3.88,3.88,0,0,1,340.5,4.26Zm-.6,9.1a2.54,2.54,0,0,0,2.1-1,4.22,4.22,0,0,0,.75-2.65A4.2,4.2,0,0,0,342,7.1a2.52,2.52,0,0,0-2.09-1,2.57,2.57,0,0,0-2.1,1A4.18,4.18,0,0,0,337,9.76a4.16,4.16,0,0,0,.77,2.63A2.53,2.53,0,0,0,339.9,13.36Z"/><path class="cls-1" d="M349.49,2.2a1.34,1.34,0,0,1-1,.37,1.36,1.36,0,0,1-1-.37,1.22,1.22,0,0,1-.38-.91,1.24,1.24,0,0,1,.38-.92,1.36,1.36,0,0,1,1-.37,1.34,1.34,0,0,1,1,.37,1.24,1.24,0,0,1,.38.92A1.22,1.22,0,0,1,349.49,2.2Zm-2,12.87V4.43h2.09V15.07Z"/><path class="cls-1" d="M359.62,12.2h2a3.72,3.72,0,0,1-1.58,2.25,5.27,5.27,0,0,1-3,.82,4.59,4.59,0,0,1-3.6-1.47,5.83,5.83,0,0,1-1.31-4,5.89,5.89,0,0,1,1.33-4.06A4.51,4.51,0,0,1,357,4.23a4.4,4.4,0,0,1,3.48,1.42,5.71,5.71,0,0,1,1.27,3.94v.73h-7.51v.12a3.31,3.31,0,0,0,.81,2.23,2.65,2.65,0,0,0,2,.82A2.5,2.5,0,0,0,359.62,12.2Zm-.74-5.44A2.43,2.43,0,0,0,357,6a2.59,2.59,0,0,0-1.91.75,3,3,0,0,0-.84,2h5.37A3,3,0,0,0,358.88,6.76Z"/><path class="cls-1" d="M368.17,15.24A3.92,3.92,0,0,1,365,13.76a6.26,6.26,0,0,1-1.19-4,6.2,6.2,0,0,1,1.2-4,4.22,4.22,0,0,1,5.18-1,3.18,3.18,0,0,1,1.3,1.37h.15V.28h2.1V15.07h-2V13.39h-.17a3.42,3.42,0,0,1-1.36,1.36A4,4,0,0,1,368.17,15.24Zm.6-9.1a2.52,2.52,0,0,0-2.09,1,4.24,4.24,0,0,0-.75,2.65,4.22,4.22,0,0,0,.75,2.65,2.75,2.75,0,0,0,4.18,0,4.06,4.06,0,0,0,.77-2.63,4.17,4.17,0,0,0-.77-2.64A2.53,2.53,0,0,0,368.77,6.14Z"/><path class="cls-1" d="M383.05,1.79h2.1V4.48h2.3V6.25h-2.3v5.47a1.72,1.72,0,0,0,.36,1.21,1.48,1.48,0,0,0,1.14.39c.21,0,.48,0,.8-.05V15a7,7,0,0,1-1.14.11,3.75,3.75,0,0,1-2.51-.67,2.8,2.8,0,0,1-.75-2.2v-6h-1.69V4.48h1.69Z"/><path class="cls-1" d="M394.3,15.27a4.71,4.71,0,0,1-3.68-1.47,5.77,5.77,0,0,1-1.34-4.05,5.77,5.77,0,0,1,1.34-4,5.32,5.32,0,0,1,7.34,0,5.78,5.78,0,0,1,1.35,4.05A5.82,5.82,0,0,1,398,13.8,4.72,4.72,0,0,1,394.3,15.27Zm0-1.86a2.51,2.51,0,0,0,2.1-1,4.33,4.33,0,0,0,.75-2.7,4.26,4.26,0,0,0-.75-2.69,2.78,2.78,0,0,0-4.21,0,4.29,4.29,0,0,0-.74,2.7,4.29,4.29,0,0,0,.74,2.7A2.51,2.51,0,0,0,394.3,13.41Z"/><path class="cls-1" d="M408.87,1h1.56l-1.12,5.8h-2.2Zm4,0h1.56l-.95,5.8h-2.2Z"/><path class="cls-1" d="M420,9.7v5.37h-2.19V1h5.58a4.83,4.83,0,0,1,3.4,1.17,4.13,4.13,0,0,1,1.27,3.16,4.43,4.43,0,0,1-.73,2.51,3.94,3.94,0,0,1-2,1.52l3.17,5.73H426L423.12,9.7Zm0-6.8V7.83h3.14a2.78,2.78,0,0,0,2-.64,2.35,2.35,0,0,0,.7-1.83,2.3,2.3,0,0,0-.73-1.81,2.89,2.89,0,0,0-2-.65Z"/><path class="cls-1" d="M437.62,12.2h2a3.72,3.72,0,0,1-1.58,2.25,5.27,5.27,0,0,1-3,.82,4.59,4.59,0,0,1-3.6-1.47,5.78,5.78,0,0,1-1.31-4,5.89,5.89,0,0,1,1.33-4.06A4.51,4.51,0,0,1,435,4.23a4.4,4.4,0,0,1,3.48,1.42,5.76,5.76,0,0,1,1.27,3.94v.73h-7.51v.12a3.31,3.31,0,0,0,.81,2.23,2.64,2.64,0,0,0,2,.82A2.51,2.51,0,0,0,437.62,12.2Zm-.74-5.44A2.45,2.45,0,0,0,435,6a2.59,2.59,0,0,0-1.91.75,2.94,2.94,0,0,0-.84,2h5.37A3,3,0,0,0,436.88,6.76Z"/><path class="cls-1" d="M445.22,15.24a3.72,3.72,0,0,1-2.55-.87,2.92,2.92,0,0,1-1-2.31,2.69,2.69,0,0,1,1-2.24,5.09,5.09,0,0,1,2.92-.93l2.89-.17V7.8A1.59,1.59,0,0,0,448,6.5,2.52,2.52,0,0,0,446.34,6a3.16,3.16,0,0,0-1.46.31,1.49,1.49,0,0,0-.76.88h-2A3,3,0,0,1,443.43,5a5.21,5.21,0,0,1,3-.81,4.57,4.57,0,0,1,3.08.94,3.32,3.32,0,0,1,1.09,2.63v7.27h-2v-1.5h-.16a3.22,3.22,0,0,1-1.32,1.24A4,4,0,0,1,445.22,15.24Zm.54-1.76a2.91,2.91,0,0,0,2-.67,2.09,2.09,0,0,0,.79-1.66v-.89l-2.6.17a3,3,0,0,0-1.61.45,1.24,1.24,0,0,0-.52,1.08,1.3,1.3,0,0,0,.55,1.11A2.32,2.32,0,0,0,445.76,13.48Z"/><path class="cls-1" d="M457.48,15.24a3.9,3.9,0,0,1-3.22-1.48,6.2,6.2,0,0,1-1.19-4,6.2,6.2,0,0,1,1.19-4,4.22,4.22,0,0,1,5.18-1,3.12,3.12,0,0,1,1.3,1.37h.16V.28H463V15.07h-2V13.39h-.17a3.42,3.42,0,0,1-1.36,1.36A4,4,0,0,1,457.48,15.24Zm.6-9.1a2.52,2.52,0,0,0-2.09,1,4.24,4.24,0,0,0-.76,2.65A4.22,4.22,0,0,0,456,12.4a2.75,2.75,0,0,0,4.18,0,4.12,4.12,0,0,0,.77-2.63,4.17,4.17,0,0,0-.77-2.64A2.53,2.53,0,0,0,458.08,6.14Z"/><path class="cls-1" d="M467.2,18.93a6.36,6.36,0,0,1-.87-.05V17.07a3.89,3.89,0,0,0,.68,0,1.92,1.92,0,0,0,1.2-.34,2.42,2.42,0,0,0,.73-1.14l.15-.52L465.24,4.43h2.29l2.67,8.45h.16L473,4.43h2.22l-4,11.08a6.14,6.14,0,0,1-1.57,2.67A3.78,3.78,0,0,1,467.2,18.93Z"/><path class="cls-1" d="M483.6,1.79h2.1V4.48H488V6.25H485.7v5.47a1.72,1.72,0,0,0,.36,1.21,1.52,1.52,0,0,0,1.15.39c.21,0,.47,0,.8-.05V15a7,7,0,0,1-1.14.11,3.75,3.75,0,0,1-2.51-.67,2.8,2.8,0,0,1-.76-2.2v-6h-1.69V4.48h1.69Z"/><path class="cls-1" d="M494.85,15.27a4.73,4.73,0,0,1-3.68-1.47,5.82,5.82,0,0,1-1.34-4.05,5.78,5.78,0,0,1,1.35-4,5.32,5.32,0,0,1,7.34,0,5.77,5.77,0,0,1,1.34,4.05,5.82,5.82,0,0,1-1.33,4.05A4.74,4.74,0,0,1,494.85,15.27Zm0-1.86a2.52,2.52,0,0,0,2.11-1,4.33,4.33,0,0,0,.75-2.7A4.26,4.26,0,0,0,497,7.06a2.79,2.79,0,0,0-4.22,0,4.36,4.36,0,0,0-.74,2.7,4.36,4.36,0,0,0,.74,2.7A2.52,2.52,0,0,0,494.85,13.41Z"/><path class="cls-1" d="M512.33,19.13a5.73,5.73,0,0,1-3.2-.81,3,3,0,0,1-1.4-2.19h2.15a1.43,1.43,0,0,0,.79.93,3.6,3.6,0,0,0,1.69.34,3.15,3.15,0,0,0,2-.59,2,2,0,0,0,.74-1.64v-2H515a3.31,3.31,0,0,1-1.33,1.32,4,4,0,0,1-1.95.46,3.94,3.94,0,0,1-3.21-1.44,5.86,5.86,0,0,1-1.19-3.84,6,6,0,0,1,1.2-3.91,3.93,3.93,0,0,1,3.22-1.46,4.05,4.05,0,0,1,2,.5,3.3,3.3,0,0,1,1.35,1.37h.16V4.43h2V15.16a3.57,3.57,0,0,1-1.33,2.9A5.58,5.58,0,0,1,512.33,19.13Zm-2.11-7a2.5,2.5,0,0,0,2.08.94,2.59,2.59,0,0,0,2.11-.94,3.86,3.86,0,0,0,.78-2.54,3.87,3.87,0,0,0-.78-2.54,2.59,2.59,0,0,0-2.11-.94,2.5,2.5,0,0,0-2.08.94,4,4,0,0,0-.74,2.54A4,4,0,0,0,510.22,12.16Z"/><path class="cls-1" d="M524.79,15.27a4.75,4.75,0,0,1-3.69-1.47,5.82,5.82,0,0,1-1.33-4.05,5.77,5.77,0,0,1,1.34-4,5.32,5.32,0,0,1,7.34,0,5.77,5.77,0,0,1,1.34,4.05,5.82,5.82,0,0,1-1.33,4.05A4.72,4.72,0,0,1,524.79,15.27Zm0-1.86a2.51,2.51,0,0,0,2.1-1,4.33,4.33,0,0,0,.75-2.7,4.26,4.26,0,0,0-.75-2.69,2.78,2.78,0,0,0-4.21,0,4.29,4.29,0,0,0-.75,2.7,4.29,4.29,0,0,0,.75,2.7A2.49,2.49,0,0,0,524.79,13.41Z"/><path class="cls-1" d="M534,6.78h-1.55l1-5.8h2.2Zm4,0h-1.56L537.56,1h2.2Z"/><path class="cls-1" d="M548.84,15.07V6.25h-1.75V4.48h1.75V3.34q0-3.15,3.28-3.15a6.88,6.88,0,0,1,1.25.1V1.94a4.32,4.32,0,0,0-.81-.06,1.73,1.73,0,0,0-1.26.4,1.61,1.61,0,0,0-.39,1.19v1h2.37V6.25h-2.34v8.82Z"/><path class="cls-1" d="M559.74,15.27a4.75,4.75,0,0,1-3.69-1.47,5.82,5.82,0,0,1-1.33-4.05,5.77,5.77,0,0,1,1.34-4,5.32,5.32,0,0,1,7.34,0,5.78,5.78,0,0,1,1.35,4.05,5.82,5.82,0,0,1-1.34,4.05A4.72,4.72,0,0,1,559.74,15.27Zm0-1.86a2.51,2.51,0,0,0,2.1-1,4.33,4.33,0,0,0,.75-2.7,4.26,4.26,0,0,0-.75-2.69,2.78,2.78,0,0,0-4.21,0,4.29,4.29,0,0,0-.75,2.7,4.29,4.29,0,0,0,.75,2.7A2.51,2.51,0,0,0,559.74,13.41Z"/><path class="cls-1" d="M567.36,15.07V.28h2.1V15.07Z"/><path class="cls-1" d="M576.49,15.24a3.92,3.92,0,0,1-3.22-1.48,6.26,6.26,0,0,1-1.19-4,6.2,6.2,0,0,1,1.2-4,4.22,4.22,0,0,1,5.18-1,3.18,3.18,0,0,1,1.3,1.37h.15V.28H582V15.07h-2V13.39h-.17a3.42,3.42,0,0,1-1.36,1.36A4,4,0,0,1,576.49,15.24Zm.6-9.1a2.52,2.52,0,0,0-2.09,1,4.24,4.24,0,0,0-.75,2.65A4.22,4.22,0,0,0,575,12.4a2.75,2.75,0,0,0,4.18,0A4.06,4.06,0,0,0,580,9.76a4.17,4.17,0,0,0-.77-2.64A2.52,2.52,0,0,0,577.09,6.14Z"/><path class="cls-1" d="M592.13,12.2h2a3.72,3.72,0,0,1-1.58,2.25,5.27,5.27,0,0,1-3,.82,4.59,4.59,0,0,1-3.6-1.47,5.83,5.83,0,0,1-1.31-4A5.89,5.89,0,0,1,586,5.73a4.51,4.51,0,0,1,3.57-1.5A4.4,4.4,0,0,1,593,5.65a5.71,5.71,0,0,1,1.27,3.94v.73h-7.51v.12a3.31,3.31,0,0,0,.81,2.23,2.65,2.65,0,0,0,2,.82A2.5,2.5,0,0,0,592.13,12.2Zm-.74-5.44A2.43,2.43,0,0,0,589.52,6a2.59,2.59,0,0,0-1.91.75,3,3,0,0,0-.84,2h5.37A3,3,0,0,0,591.39,6.76Z"/><path class="cls-1" d="M596.8,15.07V4.43h2V6.06H599a2.26,2.26,0,0,1,1-1.29,3.41,3.41,0,0,1,1.85-.51,3.77,3.77,0,0,1,.93.09V6.42a3.75,3.75,0,0,0-1.17-.13,2.81,2.81,0,0,0-2,.69,2.35,2.35,0,0,0-.75,1.81v6.28Z"/></g></g></svg>