<svg xmlns="http://www.w3.org/2000/svg" viewBox="0 0 100 77.63"><defs><style>.cls-1{fill:#ddd;}</style></defs><title>completed</title><g id="Layer_2" data-name="Layer 2"><g id="Layer_1-2" data-name="Layer 1"><path class="cls-1" d="M34.62,51.16c.58-.68.86-1.07,1.2-1.4Q59.37,26.19,82.91,2.66C85.63,0,89-.74,92.06.83a10.12,10.12,0,0,1,2.21,1.6c1.06,1,2,2,3.06,3,3.55,3.59,3.57,8.05,0,11.62Q90.1,24.37,82.8,31.63q-22,22-44,44.06c-1.63,1.63-3.47,2.41-5.71,1.63a6.1,6.1,0,0,1-2.17-1.42Q16.69,61.77,2.55,47.59c-3.4-3.41-3.39-7.94,0-11.36C3.59,35.15,4.66,34.07,5.74,33a7.6,7.6,0,0,1,11.11,0q8.45,8.37,16.83,16.82A13.09,13.09,0,0,1,34.62,51.16Z"/></g></g></svg>