<svg xmlns="http://www.w3.org/2000/svg" viewBox="0 0 181.82 41.63"><defs><style>.cls-1{fill:#ddd;}</style></defs><title>fragments are out</title><g id="Layer_2" data-name="Layer 2"><g id="Layer_1-2" data-name="Layer 1"><path class="cls-1" d="M2.19,14.09H0V0H8.8V2H2.19V6.32H8.24V8.25H2.19Z"/><path class="cls-1" d="M11.39,14.09V3.46h2V5.09h.15a2.28,2.28,0,0,1,1-1.3,3.41,3.41,0,0,1,1.85-.51,3.77,3.77,0,0,1,.93.09V5.44a3.75,3.75,0,0,0-1.17-.13,2.77,2.77,0,0,0-2,.7,2.33,2.33,0,0,0-.75,1.8v6.28Z"/><path class="cls-1" d="M22.27,14.27a3.69,3.69,0,0,1-2.56-.88,2.92,2.92,0,0,1-1-2.31,2.7,2.7,0,0,1,1-2.24,5.17,5.17,0,0,1,2.93-.93l2.88-.17V6.83A1.61,1.61,0,0,0,25,5.52a2.52,2.52,0,0,0-1.62-.45,3,3,0,0,0-1.46.31,1.44,1.44,0,0,0-.76.87h-2a2.94,2.94,0,0,1,1.34-2.18,5.16,5.16,0,0,1,3-.82,4.63,4.63,0,0,1,3.08.94,3.33,3.33,0,0,1,1.09,2.64v7.26h-2V12.6h-.17a3.3,3.3,0,0,1-1.31,1.23A4,4,0,0,1,22.27,14.27Zm.53-1.77a3,3,0,0,0,2-.66,2.12,2.12,0,0,0,.79-1.66V9.29L23,9.45a3.12,3.12,0,0,0-1.61.45A1.27,1.27,0,0,0,20.83,11a1.28,1.28,0,0,0,.55,1.1A2.32,2.32,0,0,0,22.8,12.5Z"/><path class="cls-1" d="M35.12,18.15a5.74,5.74,0,0,1-3.21-.81,2.94,2.94,0,0,1-1.39-2.18h2.15a1.38,1.38,0,0,0,.78.92,3.64,3.64,0,0,0,1.7.35,3.14,3.14,0,0,0,2-.6,2,2,0,0,0,.74-1.64v-2h-.16a3.35,3.35,0,0,1-1.32,1.32,4,4,0,0,1-2,.47,4,4,0,0,1-3.21-1.44A5.9,5.9,0,0,1,30.1,8.65a5.94,5.94,0,0,1,1.19-3.9,3.92,3.92,0,0,1,3.22-1.47,4.05,4.05,0,0,1,2,.5,3.32,3.32,0,0,1,1.35,1.38H38V3.46h2V14.18a3.52,3.52,0,0,1-1.33,2.9A5.5,5.5,0,0,1,35.12,18.15Zm-2.11-7a2.51,2.51,0,0,0,2.08.93,2.58,2.58,0,0,0,2.11-.94A3.89,3.89,0,0,0,38,8.64a3.9,3.9,0,0,0-.77-2.53,2.58,2.58,0,0,0-2.11-.94A2.51,2.51,0,0,0,33,6.1a3.94,3.94,0,0,0-.74,2.54A4,4,0,0,0,33,11.19Z"/><path class="cls-1" d="M43.08,14.09V3.46h2V5.17h.15a2.91,2.91,0,0,1,1.13-1.42,3.34,3.34,0,0,1,1.83-.5A3.17,3.17,0,0,1,50,3.76a3,3,0,0,1,1.11,1.41h.17a3.13,3.13,0,0,1,1.27-1.4,3.71,3.71,0,0,1,2-.52,3.32,3.32,0,0,1,2.51.93,3.6,3.6,0,0,1,.89,2.59v7.32h-2.1V7.31a1.85,1.85,0,0,0-2.06-2.13A2.14,2.14,0,0,0,51.53,7.4v6.69H49.47v-7a1.85,1.85,0,0,0-.55-1.42,2.15,2.15,0,0,0-1.5-.51,2.1,2.1,0,0,0-1.6.69,2.41,2.41,0,0,0-.64,1.72v6.5Z"/><path class="cls-1" d="M67.86,11.22h2a3.73,3.73,0,0,1-1.57,2.26,5.38,5.38,0,0,1-3,.82,4.59,4.59,0,0,1-3.6-1.47,5.84,5.84,0,0,1-1.31-4,5.87,5.87,0,0,1,1.33-4.05,4.5,4.5,0,0,1,3.57-1.51,4.44,4.44,0,0,1,3.49,1.43A5.73,5.73,0,0,1,70,8.61v.74H62.5v.11a3.31,3.31,0,0,0,.81,2.23,2.62,2.62,0,0,0,2,.82A2.5,2.5,0,0,0,67.86,11.22Zm-.74-5.43A2.44,2.44,0,0,0,65.25,5a2.59,2.59,0,0,0-1.91.75,3,3,0,0,0-.84,2h5.37A2.84,2.84,0,0,0,67.12,5.79Z"/><path class="cls-1" d="M72.53,14.09V3.46h2V5.15h.16a3.13,3.13,0,0,1,3.17-1.9,3.51,3.51,0,0,1,2.73,1,4.12,4.12,0,0,1,1,2.93v6.88h-2.1V7.73c0-1.7-.76-2.55-2.29-2.55a2.43,2.43,0,0,0-1.85.72,2.75,2.75,0,0,0-.69,2v6.22Z"/><path class="cls-1" d="M85.25.81h2.1v2.7h2.31V5.27H87.35v5.47A1.74,1.74,0,0,0,87.71,12a1.52,1.52,0,0,0,1.15.38,6.52,6.52,0,0,0,.8-.05V14a7,7,0,0,1-1.14.11A3.81,3.81,0,0,1,86,13.49a2.84,2.84,0,0,1-.76-2.21v-6H83.56V3.51h1.69Z"/><path class="cls-1" d="M91.73,6.46a2.8,2.8,0,0,1,1.16-2.3,4.65,4.65,0,0,1,3-.91,4.93,4.93,0,0,1,2.9.79A3,3,0,0,1,100,6.24H98a1.51,1.51,0,0,0-.71-.94A2.72,2.72,0,0,0,95.86,5a2.65,2.65,0,0,0-1.48.39,1.14,1.14,0,0,0-.58,1,1,1,0,0,0,.41.79,3.32,3.32,0,0,0,1.28.51l1.77.41a4.72,4.72,0,0,1,2.25,1,2.45,2.45,0,0,1,.71,1.86A2.87,2.87,0,0,1,99,13.37a5.11,5.11,0,0,1-3.16.93,5.27,5.27,0,0,1-3.06-.81,2.92,2.92,0,0,1-1.3-2.22h2.09a1.79,1.79,0,0,0,.8,1,3,3,0,0,0,1.52.35,3,3,0,0,0,1.61-.4,1.2,1.2,0,0,0,.63-1c0-.62-.53-1.05-1.57-1.3l-1.85-.43a4.64,4.64,0,0,1-2.24-1.07A2.56,2.56,0,0,1,91.73,6.46Z"/><path class="cls-1" d="M111.16,14.27a3.68,3.68,0,0,1-2.55-.88,2.92,2.92,0,0,1-1-2.31,2.72,2.72,0,0,1,1-2.24,5.2,5.2,0,0,1,2.93-.93l2.88-.17V6.83a1.6,1.6,0,0,0-.55-1.31,2.54,2.54,0,0,0-1.62-.45,3,3,0,0,0-1.46.31,1.44,1.44,0,0,0-.76.87h-2a2.94,2.94,0,0,1,1.34-2.18,5.13,5.13,0,0,1,3-.82,4.59,4.59,0,0,1,3.08.94,3.3,3.3,0,0,1,1.09,2.64v7.26h-2V12.6h-.16A3.26,3.26,0,0,1,113,13.83,4,4,0,0,1,111.16,14.27Zm.54-1.77a3,3,0,0,0,2-.66,2.11,2.11,0,0,0,.78-1.66V9.29l-2.59.16a3.2,3.2,0,0,0-1.62.45,1.4,1.4,0,0,0,0,2.19A2.35,2.35,0,0,0,111.7,12.5Z"/><path class="cls-1" d="M119.53,14.09V3.46h2V5.09h.16a2.24,2.24,0,0,1,1-1.3,3.37,3.37,0,0,1,1.84-.51,3.86,3.86,0,0,1,.94.09V5.44a3.83,3.83,0,0,0-1.17-.13,2.74,2.74,0,0,0-2,.7,2.31,2.31,0,0,0-.76,1.8v6.28Z"/><path class="cls-1" d="M134.24,11.22h2a3.74,3.74,0,0,1-1.58,2.26,5.35,5.35,0,0,1-3,.82,4.59,4.59,0,0,1-3.6-1.47,5.84,5.84,0,0,1-1.31-4,5.87,5.87,0,0,1,1.33-4.05,4.49,4.49,0,0,1,3.57-1.51,4.41,4.41,0,0,1,3.48,1.43,5.73,5.73,0,0,1,1.27,3.93v.74h-7.51v.11a3.31,3.31,0,0,0,.81,2.23,2.62,2.62,0,0,0,2,.82A2.51,2.51,0,0,0,134.24,11.22Zm-.74-5.43A2.44,2.44,0,0,0,131.63,5a2.59,2.59,0,0,0-1.91.75,3,3,0,0,0-.84,2h5.37A2.93,2.93,0,0,0,133.5,5.79Z"/><path class="cls-1" d="M144.38,14.09V3.46h2V5.15h.15a3.14,3.14,0,0,1,3.18-1.9,3.54,3.54,0,0,1,2.73,1,4.16,4.16,0,0,1,.95,2.93v6.88h-2.1V7.73c0-1.7-.77-2.55-2.3-2.55a2.45,2.45,0,0,0-1.85.72,2.75,2.75,0,0,0-.69,2v6.22Z"/><path class="cls-1" d="M160.85,14.3a4.7,4.7,0,0,1-3.68-1.48,5.8,5.8,0,0,1-1.34-4.05,5.79,5.79,0,0,1,1.34-4,5.3,5.3,0,0,1,7.35,0,5.79,5.79,0,0,1,1.34,4,5.8,5.8,0,0,1-1.34,4.05A4.68,4.68,0,0,1,160.85,14.3Zm0-1.87a2.5,2.5,0,0,0,2.1-1,4.29,4.29,0,0,0,.75-2.7A4.28,4.28,0,0,0,163,6.08a2.5,2.5,0,0,0-2.1-1,2.53,2.53,0,0,0-2.11,1,4.36,4.36,0,0,0-.74,2.7,4.32,4.32,0,0,0,.74,2.7A2.51,2.51,0,0,0,160.85,12.43Z"/><path class="cls-1" d="M181.82,3.46,178.9,14.09h-2.18l-2.2-7.83h-.16l-2.19,7.83H170L167.08,3.46h2.13l1.9,8.11h.16l2.19-8.11h2l2.19,8.11h.16l1.9-8.11Z"/><path class="cls-1" d="M44.82,38.3a4.7,4.7,0,0,1-3.68-1.48,5.8,5.8,0,0,1-1.34-4,5.79,5.79,0,0,1,1.34-4,4.71,4.71,0,0,1,3.68-1.48,4.7,4.7,0,0,1,3.67,1.48,5.79,5.79,0,0,1,1.34,4,5.8,5.8,0,0,1-1.34,4A4.68,4.68,0,0,1,44.82,38.3Zm0-1.87a2.5,2.5,0,0,0,2.1-1,4.29,4.29,0,0,0,.75-2.7,4.28,4.28,0,0,0-.75-2.69,2.5,2.5,0,0,0-2.1-1,2.53,2.53,0,0,0-2.11.95,4.36,4.36,0,0,0-.74,2.7,4.37,4.37,0,0,0,.74,2.71A2.53,2.53,0,0,0,44.82,36.43Z"/><path class="cls-1" d="M57.87,27.28a3.92,3.92,0,0,1,3.22,1.48,6.24,6.24,0,0,1,1.19,4,6.24,6.24,0,0,1-1.19,4,3.89,3.89,0,0,1-3.2,1.49,4.05,4.05,0,0,1-2-.48,3,3,0,0,1-1.28-1.31h-.16v5.15h-2.1V27.46h2v1.76h.16a3.53,3.53,0,0,1,1.36-1.43A3.92,3.92,0,0,1,57.87,27.28Zm-.6,9.1a2.54,2.54,0,0,0,2.1-1,4.2,4.2,0,0,0,.75-2.65,4.2,4.2,0,0,0-.75-2.65,2.77,2.77,0,0,0-4.19,0,4.17,4.17,0,0,0-.77,2.64,4.14,4.14,0,0,0,.77,2.63A2.51,2.51,0,0,0,57.27,36.38Z"/><path class="cls-1" d="M71.77,35.22h2a3.73,3.73,0,0,1-1.57,2.26,5.36,5.36,0,0,1-3,.82,4.56,4.56,0,0,1-3.59-1.47,5.8,5.8,0,0,1-1.32-4,5.92,5.92,0,0,1,1.33-4.05,4.52,4.52,0,0,1,3.57-1.51,4.44,4.44,0,0,1,3.49,1.43,5.73,5.73,0,0,1,1.26,3.93v.74H66.41v.11a3.31,3.31,0,0,0,.81,2.23,2.62,2.62,0,0,0,2,.82A2.49,2.49,0,0,0,71.77,35.22ZM71,29.79A2.47,2.47,0,0,0,69.17,29a2.6,2.6,0,0,0-1.92.75,3,3,0,0,0-.84,2h5.37A2.88,2.88,0,0,0,71,29.79Z"/><path class="cls-1" d="M76.44,38.09V27.46h2v1.69h.16a3.13,3.13,0,0,1,3.17-1.9,3.51,3.51,0,0,1,2.73,1,4.12,4.12,0,0,1,1,2.93v6.88h-2.1V31.73c0-1.7-.76-2.55-2.29-2.55a2.43,2.43,0,0,0-1.85.72,2.77,2.77,0,0,0-.69,2v6.22Z"/><path class="cls-1" d="M94.63,24.81h2.1v2.7H99v1.76H96.73v5.47A1.74,1.74,0,0,0,97.09,36a1.51,1.51,0,0,0,1.15.38c.21,0,.47,0,.8,0V38a7,7,0,0,1-1.14.11,3.79,3.79,0,0,1-2.51-.66,2.84,2.84,0,0,1-.76-2.21v-6H92.94V27.51h1.69Z"/><path class="cls-1" d="M105.88,38.3a4.7,4.7,0,0,1-3.68-1.48,5.8,5.8,0,0,1-1.34-4,5.75,5.75,0,0,1,1.35-4,5.29,5.29,0,0,1,7.34,0,5.75,5.75,0,0,1,1.34,4,5.8,5.8,0,0,1-1.33,4A4.71,4.71,0,0,1,105.88,38.3Zm0-1.87a2.52,2.52,0,0,0,2.11-1,4.29,4.29,0,0,0,.75-2.7,4.28,4.28,0,0,0-.75-2.69,2.81,2.81,0,0,0-4.22,0,4.36,4.36,0,0,0-.74,2.7,4.37,4.37,0,0,0,.74,2.71A2.54,2.54,0,0,0,105.88,36.43Z"/><path class="cls-1" d="M121.82,38.27a3.68,3.68,0,0,1-2.55-.88,2.92,2.92,0,0,1-1-2.31,2.72,2.72,0,0,1,1-2.24,5.2,5.2,0,0,1,2.93-.93l2.88-.17v-.91a1.6,1.6,0,0,0-.55-1.31,2.57,2.57,0,0,0-1.63-.45,3.06,3.06,0,0,0-1.46.31,1.43,1.43,0,0,0-.75.87h-2A2.94,2.94,0,0,1,120,28.07a5.13,5.13,0,0,1,3-.82,4.59,4.59,0,0,1,3.08.94,3.3,3.3,0,0,1,1.09,2.64v7.26h-2V36.6H125a3.17,3.17,0,0,1-1.31,1.23A4,4,0,0,1,121.82,38.27Zm.54-1.77a3,3,0,0,0,2-.66,2.11,2.11,0,0,0,.78-1.66v-.89l-2.6.16a3.19,3.19,0,0,0-1.61.45,1.29,1.29,0,0,0-.51,1.09,1.32,1.32,0,0,0,.54,1.11A2.35,2.35,0,0,0,122.36,36.5Z"/><path class="cls-1" d="M132.25,25.23a1.5,1.5,0,0,1-1.95,0,1.21,1.21,0,0,1-.38-.92,1.19,1.19,0,0,1,.38-.91,1.44,1.44,0,0,1,1.95,0,1.22,1.22,0,0,1,.38.91A1.24,1.24,0,0,1,132.25,25.23Zm-2,12.86V27.46h2.09V38.09Z"/><path class="cls-1" d="M135.41,38.09V27.46h2v1.63h.15a2.28,2.28,0,0,1,1-1.3,3.37,3.37,0,0,1,1.84-.51,3.86,3.86,0,0,1,.94.09v2.07a4.08,4.08,0,0,0-1.17-.13,2.77,2.77,0,0,0-2,.7,2.34,2.34,0,0,0-.76,1.8v6.28Z"/></g></g></svg>