<svg xmlns="http://www.w3.org/2000/svg" viewBox="0 0 212.73 178.23"><defs><style>.cls-1{fill:#ddd;}.cls-2{fill:none;stroke:#ddd;stroke-miterlimit:10;stroke-width:2px;}</style></defs><title>enter</title><g id="Layer_2" data-name="Layer 2"><g id="Layer_1-2" data-name="Layer 1"><path class="cls-1" d="M126.42,66.66H86.31a13.19,13.19,0,0,1-1.78-.57,5.55,5.55,0,0,1-3.17-5.33V27.05c0-1.64.41-2.05,2-2.05h3.54V19.78A18.86,18.86,0,0,1,92.38,6,18.78,18.78,0,0,1,110.77.54a19.32,19.32,0,0,1,15,18.52c0,1.74,0,3.47,0,5.21V25c1.35,0,2.61,0,3.86,0s1.7.53,1.7,1.66q0,17.15,0,34.3a5.22,5.22,0,0,1-2.29,4.58A13.87,13.87,0,0,1,126.42,66.66Zm-9-41.68c0-2,0-4,0-5.91a10.23,10.23,0,0,0-2.28-6.37,11.09,11.09,0,0,0-19.5,3.88c-.77,2.71-.31,5.52-.37,8.29,0,0,0,.06.09.11ZM106.31,55.56h2.47c1.3,0,1.86-.68,1.71-1.94q-.42-3.55-.78-7.11a.81.81,0,0,1,.22-.6,5.55,5.55,0,0,0-4.83-9.64,5.55,5.55,0,0,0-2.34,9.61.88.88,0,0,1,.26.65c-.25,2.39-.52,4.78-.79,7.17a1.48,1.48,0,0,0,1.61,1.85C104.66,55.58,105.49,55.56,106.31,55.56Z"/><path class="cls-1" d="M42.29,94.57v2H33.35V82.47h8.94v2H35.53v4h6.4v1.9h-6.4v4.23Z"/><path class="cls-1" d="M45.2,96.56V85.92h2v1.69h.16a3.13,3.13,0,0,1,3.17-1.89,3.54,3.54,0,0,1,2.73,1,4.14,4.14,0,0,1,1,2.93v6.89h-2.1V90.2c0-1.7-.77-2.56-2.3-2.56a2.42,2.42,0,0,0-1.85.73,2.73,2.73,0,0,0-.69,2v6.22Z"/><path class="cls-1" d="M57.93,83.28H60V86h2.3v1.77H60v5.47a1.72,1.72,0,0,0,.36,1.21,1.48,1.48,0,0,0,1.14.39c.21,0,.48,0,.8,0v1.75a7,7,0,0,1-1.14.11A3.75,3.75,0,0,1,58.68,96a2.81,2.81,0,0,1-.75-2.2v-6H56.24V86h1.69Z"/><path class="cls-1" d="M71.66,93.69h2a3.72,3.72,0,0,1-1.58,2.25,5.27,5.27,0,0,1-3,.82,4.59,4.59,0,0,1-3.6-1.47,5.83,5.83,0,0,1-1.31-4,5.89,5.89,0,0,1,1.33-4.06,4.51,4.51,0,0,1,3.57-1.5,4.4,4.4,0,0,1,3.48,1.42,5.76,5.76,0,0,1,1.27,3.94v.73H66.3v.12a3.31,3.31,0,0,0,.81,2.23,2.64,2.64,0,0,0,2,.82A2.51,2.51,0,0,0,71.66,93.69Zm-.74-5.44a2.45,2.45,0,0,0-1.87-.74,2.58,2.58,0,0,0-1.91.75,2.94,2.94,0,0,0-.84,2h5.37A3,3,0,0,0,70.92,88.25Z"/><path class="cls-1" d="M76.33,96.56V85.92h2v1.63h.15a2.26,2.26,0,0,1,1-1.29,3.37,3.37,0,0,1,1.84-.51,3.86,3.86,0,0,1,.94.09v2.07a3.75,3.75,0,0,0-1.17-.13,2.81,2.81,0,0,0-2,.69,2.36,2.36,0,0,0-.76,1.81v6.28Z"/><path class="cls-1" d="M90.05,82.47h5.51a4.51,4.51,0,0,1,3.36,1.3,4.62,4.62,0,0,1,1.29,3.39,4.49,4.49,0,0,1-1.32,3.36,4.65,4.65,0,0,1-3.39,1.29H92.23v4.75H90.05Zm2.18,1.93v5.49H95a3.18,3.18,0,0,0,2.2-.71,2.58,2.58,0,0,0,.79-2,2.65,2.65,0,0,0-.78-2A3.16,3.16,0,0,0,95,84.4Z"/><path class="cls-1" d="M105.33,96.73a3.72,3.72,0,0,1-2.55-.87,2.9,2.9,0,0,1-1-2.31,2.71,2.71,0,0,1,1-2.24,5.1,5.1,0,0,1,2.93-.93l2.88-.17v-.92a1.59,1.59,0,0,0-.56-1.3,2.52,2.52,0,0,0-1.62-.46,3.19,3.19,0,0,0-1.46.31,1.47,1.47,0,0,0-.75.88h-2a3,3,0,0,1,1.35-2.19,5.2,5.2,0,0,1,3-.81,4.56,4.56,0,0,1,3.08.94,3.29,3.29,0,0,1,1.09,2.63v7.27h-2v-1.5h-.17a3.19,3.19,0,0,1-1.31,1.24A4,4,0,0,1,105.33,96.73Zm.54-1.76a2.9,2.9,0,0,0,2-.67,2.06,2.06,0,0,0,.79-1.66v-.89l-2.6.17a3,3,0,0,0-1.61.45,1.27,1.27,0,0,0-.52,1.08,1.32,1.32,0,0,0,.55,1.11A2.35,2.35,0,0,0,105.87,95Z"/><path class="cls-1" d="M113.45,88.93a2.79,2.79,0,0,1,1.17-2.31,4.68,4.68,0,0,1,3-.9,4.89,4.89,0,0,1,2.91.79,3,3,0,0,1,1.26,2.2h-2a1.46,1.46,0,0,0-.7-.94,2.76,2.76,0,0,0-1.45-.34,2.67,2.67,0,0,0-1.47.38,1.17,1.17,0,0,0-.59,1,1,1,0,0,0,.41.8,3.57,3.57,0,0,0,1.28.5l1.77.41a4.82,4.82,0,0,1,2.25,1,2.45,2.45,0,0,1,.72,1.85,2.89,2.89,0,0,1-1.24,2.42,5.19,5.19,0,0,1-3.16.92,5.36,5.36,0,0,1-3.07-.8,2.94,2.94,0,0,1-1.3-2.22h2.1a1.75,1.75,0,0,0,.79,1,2.88,2.88,0,0,0,1.52.35,3,3,0,0,0,1.62-.4,1.19,1.19,0,0,0,.62-1c0-.62-.52-1-1.56-1.3l-1.86-.43a4.73,4.73,0,0,1-2.24-1.07A2.56,2.56,0,0,1,113.45,88.93Z"/><path class="cls-1" d="M124,88.93a2.81,2.81,0,0,1,1.16-2.31,4.73,4.73,0,0,1,3-.9,4.86,4.86,0,0,1,2.9.79,3,3,0,0,1,1.26,2.2h-2a1.48,1.48,0,0,0-.71-.94,3.12,3.12,0,0,0-2.91,0,1.17,1.17,0,0,0-.59,1,1,1,0,0,0,.41.8,3.5,3.5,0,0,0,1.28.5l1.77.41a4.82,4.82,0,0,1,2.25,1,2.45,2.45,0,0,1,.72,1.85,2.91,2.91,0,0,1-1.24,2.42,5.22,5.22,0,0,1-3.17.92,5.35,5.35,0,0,1-3.06-.8,2.92,2.92,0,0,1-1.3-2.22h2.1a1.71,1.71,0,0,0,.79,1,3.46,3.46,0,0,0,3.13,0,1.18,1.18,0,0,0,.63-1c0-.62-.52-1-1.57-1.3L127,91.9a4.69,4.69,0,0,1-2.24-1.07A2.56,2.56,0,0,1,124,88.93Z"/><path class="cls-1" d="M144.07,89.4h-2a2.24,2.24,0,0,0-.85-1.31,2.64,2.64,0,0,0-1.66-.5,2.51,2.51,0,0,0-2.08,1,4.21,4.21,0,0,0-.75,2.66,4.37,4.37,0,0,0,.75,2.7,2.5,2.5,0,0,0,2.08,1,2.82,2.82,0,0,0,1.65-.45,2.1,2.1,0,0,0,.86-1.3h2a3.93,3.93,0,0,1-1.41,2.63,4.75,4.75,0,0,1-3.13,1,4.67,4.67,0,0,1-3.66-1.48,5.84,5.84,0,0,1-1.33-4.07,5.76,5.76,0,0,1,1.33-4,4.69,4.69,0,0,1,3.65-1.46,4.74,4.74,0,0,1,3.14,1A4,4,0,0,1,144.07,89.4Z"/><path class="cls-1" d="M151,96.76a4.73,4.73,0,0,1-3.68-1.47,6.77,6.77,0,0,1,0-8.1,5.32,5.32,0,0,1,7.34,0,6.81,6.81,0,0,1,0,8.1A4.74,4.74,0,0,1,151,96.76Zm0-1.86a2.52,2.52,0,0,0,2.11-1,4.31,4.31,0,0,0,.75-2.7,4.26,4.26,0,0,0-.75-2.69,2.79,2.79,0,0,0-4.22,0,5.3,5.3,0,0,0,0,5.4A2.52,2.52,0,0,0,151,94.9Z"/><path class="cls-1" d="M162.37,96.73a3.9,3.9,0,0,1-3.22-1.48,7.35,7.35,0,0,1,0-8,4.22,4.22,0,0,1,5.18-1,3.18,3.18,0,0,1,1.3,1.37h.16V81.77h2.1V96.56h-2V94.88h-.17a3.42,3.42,0,0,1-1.36,1.36A4,4,0,0,1,162.37,96.73Zm.6-9.1a2.51,2.51,0,0,0-2.09,1,5,5,0,0,0,0,5.3,2.75,2.75,0,0,0,4.18,0,4.12,4.12,0,0,0,.77-2.63,4.17,4.17,0,0,0-.77-2.64A2.55,2.55,0,0,0,163,87.63Z"/><path class="cls-1" d="M178,93.69h2a3.72,3.72,0,0,1-1.58,2.25,5.27,5.27,0,0,1-3,.82,4.57,4.57,0,0,1-3.6-1.47,5.79,5.79,0,0,1-1.32-4,5.94,5.94,0,0,1,1.33-4.06,4.55,4.55,0,0,1,3.58-1.5,4.43,4.43,0,0,1,3.48,1.42,5.75,5.75,0,0,1,1.26,3.94v.73h-7.51v.12a3.41,3.41,0,0,0,.81,2.23,2.67,2.67,0,0,0,2,.82A2.49,2.49,0,0,0,178,93.69Zm-.73-5.44a2.46,2.46,0,0,0-1.87-.74,2.6,2.6,0,0,0-1.92.75,3,3,0,0,0-.84,2H178A2.93,2.93,0,0,0,177.27,88.25Z"/><rect class="cls-2" x="1" y="132.23" width="45" height="45" rx="10" ry="10"/><rect class="cls-2" x="56.24" y="132.23" width="45" height="45" rx="10" ry="10"/><rect class="cls-2" x="111.49" y="132.23" width="45" height="45" rx="10" ry="10"/><rect class="cls-2" x="166.73" y="132.23" width="45" height="45" rx="10" ry="10"/></g></g></svg>