<svg xmlns="http://www.w3.org/2000/svg" viewBox="0 0 352.58 178.07"><defs><style>.cls-1{fill:#ddd;}.cls-2{fill:none;stroke:#ddd;stroke-miterlimit:10;stroke-width:2.58px;}</style></defs><title>enter ip</title><g id="Layer_2" data-name="Layer 2"><g id="Layer_1-2" data-name="Layer 1"><path class="cls-1" d="M108,94.12v2h-9V82h9v2h-6.76v4h6.4v1.89h-6.4v4.23Z"/><path class="cls-1" d="M110.91,96.11V85.48h2v1.69h.16a3.13,3.13,0,0,1,3.17-1.9,3.54,3.54,0,0,1,2.73,1,4.16,4.16,0,0,1,1,2.93v6.88h-2.1V89.75c0-1.7-.76-2.55-2.29-2.55a2.42,2.42,0,0,0-1.85.72,2.75,2.75,0,0,0-.69,2v6.22Z"/><path class="cls-1" d="M123.63,82.83h2.1v2.7H128v1.76h-2.31v5.47a1.74,1.74,0,0,0,.36,1.22,1.51,1.51,0,0,0,1.15.38c.2,0,.47,0,.8,0v1.74a7.05,7.05,0,0,1-1.15.11,3.78,3.78,0,0,1-2.5-.66,2.8,2.8,0,0,1-.76-2.21v-6h-1.69V85.53h1.69Z"/><path class="cls-1" d="M137.36,93.24h2a3.73,3.73,0,0,1-1.57,2.26,5.35,5.35,0,0,1-3,.82,4.57,4.57,0,0,1-3.6-1.47,5.8,5.8,0,0,1-1.32-4,5.92,5.92,0,0,1,1.33-4,4.52,4.52,0,0,1,3.58-1.51,4.44,4.44,0,0,1,3.48,1.43,5.73,5.73,0,0,1,1.26,3.93v.74H132v.11a3.31,3.31,0,0,0,.81,2.23,2.62,2.62,0,0,0,2,.82A2.49,2.49,0,0,0,137.36,93.24Zm-.73-5.43a2.47,2.47,0,0,0-1.87-.75,2.6,2.6,0,0,0-1.92.75,3,3,0,0,0-.84,2h5.37A2.88,2.88,0,0,0,136.63,87.81Z"/><path class="cls-1" d="M142,96.11V85.48h2v1.63h.16a2.24,2.24,0,0,1,1-1.3,3.37,3.37,0,0,1,1.84-.51,3.86,3.86,0,0,1,.94.09v2.07a4.18,4.18,0,0,0-1.17-.13,2.74,2.74,0,0,0-2,.7,2.31,2.31,0,0,0-.76,1.8v6.28Z"/><path class="cls-1" d="M157.94,96.11h-2.19V82h2.19Z"/><path class="cls-1" d="M161.46,82H167a4.51,4.51,0,0,1,3.36,1.3,4.62,4.62,0,0,1,1.29,3.4,4.48,4.48,0,0,1-1.32,3.35,4.66,4.66,0,0,1-3.4,1.3h-3.26v4.74h-2.19ZM163.65,84v5.49h2.76a3.15,3.15,0,0,0,2.2-.71,2.57,2.57,0,0,0,.78-2,2.63,2.63,0,0,0-.77-2,3.11,3.11,0,0,0-2.21-.72Z"/><path class="cls-1" d="M182.61,96.29a3.7,3.7,0,0,1-2.56-.88,2.92,2.92,0,0,1-1-2.31,2.7,2.7,0,0,1,1-2.24,5.17,5.17,0,0,1,2.93-.93l2.88-.17v-.91a1.61,1.61,0,0,0-.56-1.31,2.52,2.52,0,0,0-1.62-.45,3,3,0,0,0-1.46.31,1.44,1.44,0,0,0-.76.87h-2a3,3,0,0,1,1.35-2.18,5.13,5.13,0,0,1,3-.82,4.61,4.61,0,0,1,3.08.94A3.33,3.33,0,0,1,188,88.85v7.26h-2V94.62h-.17a3.3,3.3,0,0,1-1.31,1.23A4,4,0,0,1,182.61,96.29Zm.53-1.77a3,3,0,0,0,2-.66,2.09,2.09,0,0,0,.79-1.66v-.89l-2.6.16a3.12,3.12,0,0,0-1.61.45,1.39,1.39,0,0,0,0,2.19A2.32,2.32,0,0,0,183.14,94.52Z"/><path class="cls-1" d="M194.86,96.29a3.91,3.91,0,0,1-3.22-1.49,6.24,6.24,0,0,1-1.19-4,6.17,6.17,0,0,1,1.2-4,3.91,3.91,0,0,1,3.21-1.49,4,4,0,0,1,2,.49,3.13,3.13,0,0,1,1.29,1.38h.16V81.33h2.1V96.11h-2V94.43h-.17a3.36,3.36,0,0,1-1.36,1.36A4,4,0,0,1,194.86,96.29Zm.6-9.1a2.52,2.52,0,0,0-2.09,1,5,5,0,0,0,0,5.29,2.76,2.76,0,0,0,4.18,0,4.91,4.91,0,0,0,0-5.28A2.53,2.53,0,0,0,195.46,87.19Z"/><path class="cls-1" d="M207.41,96.29a3.91,3.91,0,0,1-3.22-1.49,7.33,7.33,0,0,1,0-8,3.93,3.93,0,0,1,3.22-1.49,4,4,0,0,1,2,.49,3.09,3.09,0,0,1,1.3,1.38h.16V81.33h2.1V96.11h-2V94.43h-.17a3.36,3.36,0,0,1-1.36,1.36A4,4,0,0,1,207.41,96.29Zm.6-9.1a2.52,2.52,0,0,0-2.09,1,5,5,0,0,0,0,5.29,2.76,2.76,0,0,0,4.18,0,4.91,4.91,0,0,0,0-5.28A2.53,2.53,0,0,0,208,87.19Z"/><path class="cls-1" d="M216.07,96.11V85.48h2v1.63h.15a2.24,2.24,0,0,1,1-1.3,3.37,3.37,0,0,1,1.84-.51,3.86,3.86,0,0,1,.94.09v2.07a4.08,4.08,0,0,0-1.17-.13,2.75,2.75,0,0,0-2,.7,2.34,2.34,0,0,0-.76,1.8v6.28Z"/><path class="cls-1" d="M230.78,93.24h2a3.73,3.73,0,0,1-1.57,2.26,5.41,5.41,0,0,1-3,.82,4.59,4.59,0,0,1-3.6-1.47,6.83,6.83,0,0,1,0-8.07,4.5,4.5,0,0,1,3.57-1.51,4.41,4.41,0,0,1,3.48,1.43,5.68,5.68,0,0,1,1.27,3.93v.74h-7.51v.11a3.31,3.31,0,0,0,.81,2.23,2.62,2.62,0,0,0,2,.82A2.5,2.5,0,0,0,230.78,93.24ZM230,87.81a2.44,2.44,0,0,0-1.87-.75,2.59,2.59,0,0,0-1.91.75,3,3,0,0,0-.84,2h5.37A2.89,2.89,0,0,0,230,87.81Z"/><path class="cls-1" d="M235.2,88.49a2.79,2.79,0,0,1,1.17-2.31,4.64,4.64,0,0,1,3-.91,5,5,0,0,1,2.9.79,3,3,0,0,1,1.26,2.2h-2a1.46,1.46,0,0,0-.7-.94,2.74,2.74,0,0,0-1.44-.34,2.61,2.61,0,0,0-1.48.39,1.14,1.14,0,0,0-.58,1,.94.94,0,0,0,.41.79,3.26,3.26,0,0,0,1.27.51l1.77.41a4.72,4.72,0,0,1,2.25,1A2.46,2.46,0,0,1,243.7,93a2.87,2.87,0,0,1-1.24,2.41,5.13,5.13,0,0,1-3.16.93,5.23,5.23,0,0,1-3.06-.81,2.93,2.93,0,0,1-1.31-2.22H237a1.77,1.77,0,0,0,.79,1,3,3,0,0,0,1.53.35,3,3,0,0,0,1.61-.4,1.21,1.21,0,0,0,.62-1c0-.62-.52-1.05-1.56-1.3l-1.86-.43a4.73,4.73,0,0,1-2.24-1.07A2.56,2.56,0,0,1,235.2,88.49Z"/><path class="cls-1" d="M245.79,88.49A2.81,2.81,0,0,1,247,86.18a4.67,4.67,0,0,1,3-.91,4.9,4.9,0,0,1,2.9.79,3,3,0,0,1,1.26,2.2h-2a1.48,1.48,0,0,0-.71-.94,2.69,2.69,0,0,0-1.44-.34,2.6,2.6,0,0,0-1.47.39,1.15,1.15,0,0,0-.59,1,1,1,0,0,0,.41.79,3.32,3.32,0,0,0,1.28.51l1.77.41a4.72,4.72,0,0,1,2.25,1,2.46,2.46,0,0,1,.72,1.86,2.89,2.89,0,0,1-1.24,2.41,5.16,5.16,0,0,1-3.17.93,5.27,5.27,0,0,1-3.06-.81,2.92,2.92,0,0,1-1.3-2.22h2.1a1.73,1.73,0,0,0,.79,1,3.46,3.46,0,0,0,3.13,0,1.2,1.2,0,0,0,.63-1c0-.62-.52-1.05-1.56-1.3l-1.86-.43a4.69,4.69,0,0,1-2.24-1.07A2.56,2.56,0,0,1,245.79,88.49Z"/><path class="cls-1" d="M143.29,30.26c.17-1.11.31-2.24.5-3.35A30.85,30.85,0,0,1,147,17.53a.91.91,0,0,1,.63-.48c3.84,0,7.68,0,11.52,0a1.22,1.22,0,0,1,.27.06,66.45,66.45,0,0,0-1.81,14.32H143.29Z"/><path class="cls-1" d="M143.29,34.25h14.32a66.74,66.74,0,0,0,1.83,14.4h-.71c-3.67,0-7.33,0-11,0a.72.72,0,0,1-.73-.46,32.72,32.72,0,0,1-3.6-12.3,2.68,2.68,0,0,0-.11-.49Z"/><path class="cls-1" d="M160.48,31.36c.07-1.37.1-2.72.22-4.06a57.4,57.4,0,0,1,1.62-9.74c.08-.32.14-.54.55-.54,3.9,0,7.8,0,11.71,0l.18,0V31.36Z"/><path class="cls-1" d="M191.94,31.38H177.71V17.06l.63,0c3.69,0,7.38,0,11.07,0,.45,0,.65.1.78.59A61.33,61.33,0,0,1,192,30.89C192,31,192,31.18,191.94,31.38Z"/><path class="cls-1" d="M160.54,34.3h14.24V48.61c-.22,0-.41,0-.59,0-3.71,0-7.42,0-11.13,0-.47,0-.65-.14-.77-.61a60.72,60.72,0,0,1-1.78-13.28C160.51,34.63,160.53,34.48,160.54,34.3Z"/><path class="cls-1" d="M177.71,48.6V34.3H192c-.07,1.29-.1,2.55-.2,3.8a58.27,58.27,0,0,1-1.65,10.07c-.07.31-.16.48-.53.48H178A1.6,1.6,0,0,1,177.71,48.6Z"/><path class="cls-1" d="M193.05,48.6a65.73,65.73,0,0,0,1.82-14.29h14.42c-.25,1.78-.44,3.52-.76,5.23a29.91,29.91,0,0,1-3.09,8.68.85.85,0,0,1-.59.41q-5.7,0-11.38,0C193.36,48.64,193.26,48.62,193.05,48.6Z"/><path class="cls-1" d="M194.87,31.36A66.34,66.34,0,0,0,193,17h.74c3.6,0,7.2,0,10.81,0a.9.9,0,0,1,.94.55,33.38,33.38,0,0,1,3.64,13.36c0,.12,0,.25,0,.43Z"/><path class="cls-1" d="M174.79,0V14.13H163.33c.23-.64.44-1.26.68-1.87A26.78,26.78,0,0,1,169.64,3a10.37,10.37,0,0,1,4.71-2.9Z"/><path class="cls-1" d="M177.72,0a8.52,8.52,0,0,1,3.45,1.55,16.84,16.84,0,0,1,5,6c1.07,2,1.91,4.21,2.85,6.32a2.09,2.09,0,0,1,.07.33H177.72Z"/><path class="cls-1" d="M163.33,51.53h11.44V65.77c-.76-.3-1.49-.53-2.17-.87a13.81,13.81,0,0,1-4.81-4.37A32.76,32.76,0,0,1,163.33,51.53Z"/><path class="cls-1" d="M189.25,51.56c-.76,1.76-1.43,3.47-2.24,5.11a20.49,20.49,0,0,1-5.15,6.92,9.64,9.64,0,0,1-3.7,2c-.14,0-.29,0-.46.08V51.56Z"/><path class="cls-1" d="M185.3,64.48a34.81,34.81,0,0,0,6.94-13h11.22A32.61,32.61,0,0,1,185.3,64.48Z"/><path class="cls-1" d="M203.48,14.17h-.64c-3.34,0-6.69,0-10,0a.66.66,0,0,1-.75-.56,34,34,0,0,0-5.78-11.18,13.8,13.8,0,0,1-1-1.27A32.78,32.78,0,0,1,203.48,14.17Z"/><path class="cls-1" d="M149,14.17A33.38,33.38,0,0,1,167.26,1.09c-.91,1.2-1.79,2.25-2.55,3.38a35.32,35.32,0,0,0-4.26,9.1.73.73,0,0,1-.84.62c-3.3,0-6.61,0-9.91,0Z"/><path class="cls-1" d="M149,51.52h11.23a34.6,34.6,0,0,0,7,13A32.73,32.73,0,0,1,149,51.52Z"/><rect class="cls-2" x="1.29" y="131.78" width="74.74" height="45" rx="10" ry="10"/><rect class="cls-2" x="93.04" y="131.78" width="74.74" height="45" rx="10" ry="10"/><rect class="cls-2" x="184.79" y="131.78" width="74.74" height="45" rx="10" ry="10"/><rect class="cls-2" x="276.55" y="131.78" width="74.74" height="45" rx="10" ry="10"/><circle class="cls-1" cx="176.29" cy="174.28" r="2.5"/><circle class="cls-1" cx="84.54" cy="174.28" r="2.5"/><circle class="cls-1" cx="268.04" cy="174.28" r="2.5"/></g></g></svg>