<svg xmlns="http://www.w3.org/2000/svg" viewBox="0 0 212.73 178.23"><defs><style>.cls-1{fill:#ddd;}.cls-2{fill:none;stroke:#ddd;stroke-miterlimit:10;stroke-width:2px;}</style></defs><title>enter_1</title><g id="Layer_2" data-name="Layer 2"><g id="Layer_1-2" data-name="Layer 1"><path class="cls-1" d="M126.42,66.66H86.31a13.19,13.19,0,0,1-1.78-.57,5.55,5.55,0,0,1-3.17-5.33V27.05c0-1.64.41-2.05,2-2.05h3.54V19.78A18.86,18.86,0,0,1,92.38,6,18.78,18.78,0,0,1,110.77.54a19.32,19.32,0,0,1,15,18.52c0,1.74,0,3.47,0,5.21V25c1.35,0,2.61,0,3.86,0s1.7.53,1.7,1.66q0,17.15,0,34.3a5.22,5.22,0,0,1-2.29,4.58A13.87,13.87,0,0,1,126.42,66.66Zm-9-41.68c0-2,0-4,0-5.91a10.23,10.23,0,0,0-2.28-6.37,11.09,11.09,0,0,0-19.5,3.88c-.77,2.71-.31,5.52-.37,8.29,0,0,0,.06.09.11ZM106.31,55.56h2.47c1.3,0,1.86-.68,1.71-1.94q-.42-3.55-.78-7.11a.81.81,0,0,1,.22-.6,5.55,5.55,0,0,0-4.83-9.64,5.55,5.55,0,0,0-2.34,9.61.88.88,0,0,1,.26.65c-.25,2.39-.52,4.78-.79,7.17a1.48,1.48,0,0,0,1.61,1.85C104.66,55.58,105.49,55.56,106.31,55.56Z"/><rect class="cls-2" x="1" y="132.23" width="45" height="45" rx="10" ry="10"/><rect class="cls-2" x="56.24" y="132.23" width="45" height="45" rx="10" ry="10"/><rect class="cls-2" x="111.49" y="132.23" width="45" height="45" rx="10" ry="10"/><rect class="cls-2" x="166.73" y="132.23" width="45" height="45" rx="10" ry="10"/><path class="cls-1" d="M42.16,92.77h2.17a2.2,2.2,0,0,0,1.05,1.6,4.24,4.24,0,0,0,2.33.59,3.74,3.74,0,0,0,2.18-.61,1.83,1.83,0,0,0,.86-1.55,1.61,1.61,0,0,0-.64-1.32,5.2,5.2,0,0,0-2-.84l-1.82-.44a5.5,5.5,0,0,1-2.81-1.4,3.47,3.47,0,0,1-.9-2.5,3.73,3.73,0,0,1,1.41-3,5.74,5.74,0,0,1,3.72-1.15,5.49,5.49,0,0,1,3.56,1.14,3.84,3.84,0,0,1,1.52,2.91H50.62a2.3,2.3,0,0,0-.95-1.55,4,4,0,0,0-4.12,0,1.81,1.81,0,0,0-.79,1.53,1.47,1.47,0,0,0,.6,1.22,5.4,5.4,0,0,0,2,.79l1.55.38A6.62,6.62,0,0,1,52,90a3.35,3.35,0,0,1,1,2.53,3.92,3.92,0,0,1-1.46,3.2,6.14,6.14,0,0,1-4,1.18,6,6,0,0,1-3.8-1.12A3.92,3.92,0,0,1,42.16,92.77Z"/><path class="cls-1" d="M62.57,93.69h2A3.68,3.68,0,0,1,63,95.94a5.27,5.27,0,0,1-3,.82,4.59,4.59,0,0,1-3.6-1.47,5.83,5.83,0,0,1-1.31-4,5.89,5.89,0,0,1,1.33-4.06A4.53,4.53,0,0,1,60,85.72a4.4,4.4,0,0,1,3.48,1.42,5.71,5.71,0,0,1,1.27,3.94v.73H57.21v.12A3.31,3.31,0,0,0,58,94.16,2.65,2.65,0,0,0,60,95,2.5,2.5,0,0,0,62.57,93.69Zm-.74-5.44A2.43,2.43,0,0,0,60,87.51a2.59,2.59,0,0,0-1.91.75,3,3,0,0,0-.84,2h5.37A2.93,2.93,0,0,0,61.83,88.25Z"/><path class="cls-1" d="M68,83.28h2.1V86h2.3v1.77h-2.3v5.47a1.72,1.72,0,0,0,.36,1.21,1.48,1.48,0,0,0,1.14.39c.21,0,.48,0,.8,0v1.75a6.84,6.84,0,0,1-1.14.11,3.72,3.72,0,0,1-2.5-.67,2.78,2.78,0,0,1-.76-2.2v-6H66.29V86H68Z"/><path class="cls-1" d="M80.57,82.47h5.52a4.51,4.51,0,0,1,3.36,1.3,4.65,4.65,0,0,1,1.28,3.39,4.52,4.52,0,0,1-1.31,3.36A4.67,4.67,0,0,1,86,91.81H82.76v4.75H80.57Zm2.19,1.93v5.49h2.75a3.18,3.18,0,0,0,2.2-.71,2.55,2.55,0,0,0,.79-2,2.68,2.68,0,0,0-.77-2,3.2,3.2,0,0,0-2.22-.71Z"/><path class="cls-1" d="M95.85,96.73a3.72,3.72,0,0,1-2.55-.87,2.92,2.92,0,0,1-1-2.31,2.71,2.71,0,0,1,1-2.24,5.12,5.12,0,0,1,2.93-.93l2.88-.17v-.92a1.58,1.58,0,0,0-.55-1.3A2.57,2.57,0,0,0,97,87.53a3.19,3.19,0,0,0-1.46.31,1.5,1.5,0,0,0-.75.88h-2a3,3,0,0,1,1.34-2.19,5.2,5.2,0,0,1,3-.81,4.54,4.54,0,0,1,3.08.94,3.29,3.29,0,0,1,1.09,2.63v7.27h-2v-1.5H99a3.13,3.13,0,0,1-1.31,1.24A4,4,0,0,1,95.85,96.73ZM96.39,95a2.92,2.92,0,0,0,2-.67,2.08,2.08,0,0,0,.78-1.66v-.89l-2.6.17a3,3,0,0,0-1.61.45,1.26,1.26,0,0,0-.51,1.08A1.31,1.31,0,0,0,95,94.56,2.35,2.35,0,0,0,96.39,95Z"/><path class="cls-1" d="M104,88.93a2.78,2.78,0,0,1,1.16-2.31,4.69,4.69,0,0,1,3-.9,4.88,4.88,0,0,1,2.9.79,3,3,0,0,1,1.26,2.2h-2a1.51,1.51,0,0,0-.71-.94,2.74,2.74,0,0,0-1.44-.34,2.69,2.69,0,0,0-1.48.38,1.16,1.16,0,0,0-.58,1,1,1,0,0,0,.41.8,3.5,3.5,0,0,0,1.28.5l1.76.41a4.72,4.72,0,0,1,2.25,1,2.45,2.45,0,0,1,.72,1.85,2.89,2.89,0,0,1-1.24,2.42,5.17,5.17,0,0,1-3.16.92A5.32,5.32,0,0,1,105,96a2.93,2.93,0,0,1-1.31-2.22h2.1a1.75,1.75,0,0,0,.79,1,2.89,2.89,0,0,0,1.53.35,2.93,2.93,0,0,0,1.61-.4,1.19,1.19,0,0,0,.62-1c0-.62-.52-1-1.56-1.3l-1.85-.43a4.73,4.73,0,0,1-2.25-1.07A2.6,2.6,0,0,1,104,88.93Z"/><path class="cls-1" d="M114.56,88.93a2.81,2.81,0,0,1,1.16-2.31,4.73,4.73,0,0,1,3-.9,4.83,4.83,0,0,1,2.9.79,3,3,0,0,1,1.26,2.2h-2a1.48,1.48,0,0,0-.71-.94,3.12,3.12,0,0,0-2.91,0,1.17,1.17,0,0,0-.59,1,1,1,0,0,0,.41.8,3.57,3.57,0,0,0,1.28.5l1.77.41a4.82,4.82,0,0,1,2.25,1,2.45,2.45,0,0,1,.72,1.85,2.91,2.91,0,0,1-1.24,2.42,5.2,5.2,0,0,1-3.17.92,5.35,5.35,0,0,1-3.06-.8,2.92,2.92,0,0,1-1.3-2.22h2.1a1.75,1.75,0,0,0,.79,1,3.46,3.46,0,0,0,3.13,0,1.18,1.18,0,0,0,.63-1c0-.62-.52-1-1.56-1.3l-1.86-.43a4.73,4.73,0,0,1-2.24-1.07A2.56,2.56,0,0,1,114.56,88.93Z"/><path class="cls-1" d="M134.59,89.4h-2a2.27,2.27,0,0,0-.84-1.31,2.7,2.7,0,0,0-1.67-.5,2.48,2.48,0,0,0-2.07,1,4.15,4.15,0,0,0-.76,2.66,4.31,4.31,0,0,0,.76,2.7,2.47,2.47,0,0,0,2.07,1,2.87,2.87,0,0,0,1.66-.45,2.13,2.13,0,0,0,.85-1.3h2a3.88,3.88,0,0,1-1.4,2.63,4.8,4.8,0,0,1-3.14,1,4.67,4.67,0,0,1-3.66-1.48,5.84,5.84,0,0,1-1.33-4.07,5.76,5.76,0,0,1,1.33-4,5.33,5.33,0,0,1,6.79-.45A4,4,0,0,1,134.59,89.4Z"/><path class="cls-1" d="M141.48,96.76a4.75,4.75,0,0,1-3.69-1.47,6.81,6.81,0,0,1,0-8.1,5.32,5.32,0,0,1,7.34,0,6.77,6.77,0,0,1,0,8.1A4.72,4.72,0,0,1,141.48,96.76Zm0-1.86a2.51,2.51,0,0,0,2.1-1,4.31,4.31,0,0,0,.75-2.7,4.26,4.26,0,0,0-.75-2.69,2.78,2.78,0,0,0-4.21,0,5.3,5.3,0,0,0,0,5.4A2.49,2.49,0,0,0,141.48,94.9Z"/><path class="cls-1" d="M152.89,96.73a3.9,3.9,0,0,1-3.22-1.48,7.35,7.35,0,0,1,0-8,4.23,4.23,0,0,1,5.19-1,3.16,3.16,0,0,1,1.29,1.37h.16V81.77h2.1V96.56h-2V94.88h-.17a3.42,3.42,0,0,1-1.36,1.36A4,4,0,0,1,152.89,96.73Zm.6-9.1a2.52,2.52,0,0,0-2.09,1,5.06,5.06,0,0,0,0,5.3,2.75,2.75,0,0,0,4.18,0,4.12,4.12,0,0,0,.77-2.63,4.17,4.17,0,0,0-.77-2.64A2.53,2.53,0,0,0,153.49,87.63Z"/><path class="cls-1" d="M168.53,93.69h2A3.72,3.72,0,0,1,169,95.94a5.27,5.27,0,0,1-3,.82,4.59,4.59,0,0,1-3.6-1.47,5.78,5.78,0,0,1-1.31-4,5.89,5.89,0,0,1,1.33-4.06,4.51,4.51,0,0,1,3.57-1.5,4.4,4.4,0,0,1,3.48,1.42,5.76,5.76,0,0,1,1.27,3.94v.73h-7.51v.12a3.31,3.31,0,0,0,.81,2.23,2.64,2.64,0,0,0,2,.82A2.51,2.51,0,0,0,168.53,93.69Zm-.74-5.44a2.45,2.45,0,0,0-1.87-.74,2.58,2.58,0,0,0-1.91.75,2.94,2.94,0,0,0-.84,2h5.37A3,3,0,0,0,167.79,88.25Z"/></g></g></svg>